# MagicaVoxel @ Ephtracy

# group
o 

# material
mtllib Knight2_F1.mtl
usemtl palette

# normals
vn -1 0 0
vn 1 0 0
vn 0 0 1
vn 0 0 -1
vn 0 -1 0
vn 0 1 0

# texcoords
vt 0.470703 0.5
vt 0.916016 0.5
vt 0.927734 0.5

# verts
v -0.3 -0.3 0.1
v -0.3 -0.3 -0.1
v -0.3 -0.2 0.2
v -0.3 -0.2 0.1
v -0.3 -0.2 -0.1
v -0.3 -0.2 -0.2
v -0.3 0 0.2
v -0.3 0 0.1
v -0.3 0 -0.1
v -0.3 0 -0.2
v -0.3 0.1 0.1
v -0.3 0.1 -0.1
v -0.2 -0.4 0.1
v -0.2 -0.4 -0.1
v -0.2 -0.3 0.2
v -0.2 -0.3 0.1
v -0.2 -0.3 -0.1
v -0.2 -0.3 -0.2
v -0.2 -0.2 0.3
v -0.2 -0.2 0.2
v -0.2 -0.2 0.1
v -0.2 -0.2 -0.1
v -0.2 -0.2 -0.2
v -0.2 -0.2 -0.3
v -0.2 0 0.3
v -0.2 0 0.2
v -0.2 0 0.1
v -0.2 0 -0.1
v -0.2 0 -0.2
v -0.2 0 -0.3
v -0.2 0.1 0.2
v -0.2 0.1 0.1
v -0.2 0.1 -0.1
v -0.2 0.1 -0.2
v -0.2 0.2 0.1
v -0.2 0.2 -0.1
v -0.1 -0.4 0.2
v -0.1 -0.4 0.1
v -0.1 -0.4 -0.1
v -0.1 -0.4 -0.2
v -0.1 -0.3 0.2
v -0.1 -0.3 0.1
v -0.1 -0.3 -0.1
v -0.1 -0.3 -0.2
v -0.1 0 0.3
v -0.1 0 0.2
v -0.1 0 -0.2
v -0.1 0 -0.3
v -0.1 0.1 0.3
v -0.1 0.1 0.2
v -0.1 0.1 0.1
v -0.1 0.1 -0.1
v -0.1 0.1 -0.2
v -0.1 0.1 -0.3
v -0.1 0.2 0.2
v -0.1 0.2 0.1
v -0.1 0.2 -0.1
v -0.1 0.2 -0.2
v 0 -0.2 0.3
v 0 -0.2 0.2
v 0 -0.2 -0.2
v 0 -0.2 -0.3
v 0 -0.1 0.3
v 0 -0.1 0.2
v 0 -0.1 -0.2
v 0 -0.1 -0.3
v 0.1 -0.4 0.2
v 0.1 -0.4 0.1
v 0.1 -0.4 -0.1
v 0.1 -0.4 -0.2
v 0.1 -0.3 0.2
v 0.1 -0.3 0.1
v 0.1 -0.3 -0.1
v 0.1 -0.3 -0.2
v 0.1 0 0.3
v 0.1 0 0.2
v 0.1 0 -0.2
v 0.1 0 -0.3
v 0.1 0.1 0.3
v 0.1 0.1 0.2
v 0.1 0.1 -0.2
v 0.1 0.1 -0.3
v 0.1 0.2 0.2
v 0.1 0.2 -0.2
v 0.2 -0.4 0.1
v 0.2 -0.4 -0.1
v 0.2 -0.3 0.2
v 0.2 -0.3 0.1
v 0.2 -0.3 -0.1
v 0.2 -0.3 -0.2
v 0.2 -0.2 0.2
v 0.2 -0.2 0.1
v 0.2 -0.2 -0.1
v 0.2 -0.2 -0.2
v 0.2 -0.1 0.3
v 0.2 -0.1 0.2
v 0.2 -0.1 0.1
v 0.2 -0.1 -0.1
v 0.2 -0.1 -0.2
v 0.2 -0.1 -0.3
v 0.2 0 0.3
v 0.2 0 0.2
v 0.2 0 0.1
v 0.2 0 -0.1
v 0.2 0 -0.2
v 0.2 0 -0.3
v 0.2 0.1 0.2
v 0.2 0.1 -0.2
v 0.3 -0.3 0.1
v 0.3 -0.3 -0.1
v 0.3 -0.2 0.1
v 0.3 -0.2 -0.1
v -0.2 -0.2 0.3
v -0.2 0 0.3
v -0.1 0 0.3
v -0.1 0.1 0.3
v 0 -0.2 0.3
v 0 -0.1 0.3
v 0.1 0 0.3
v 0.1 0.1 0.3
v 0.2 -0.1 0.3
v 0.2 0 0.3
v -0.3 -0.2 0.2
v -0.3 0 0.2
v -0.2 -0.3 0.2
v -0.2 -0.2 0.2
v -0.2 0 0.2
v -0.2 0.1 0.2
v -0.1 -0.4 0.2
v -0.1 -0.3 0.2
v -0.1 0 0.2
v -0.1 0.1 0.2
v -0.1 0.2 0.2
v 0 -0.2 0.2
v 0 -0.1 0.2
v 0.1 -0.4 0.2
v 0.1 -0.3 0.2
v 0.1 -0.2 0.2
v 0.1 -0.1 0.2
v 0.1 0 0.2
v 0.1 0.1 0.2
v 0.1 0.2 0.2
v 0.2 -0.3 0.2
v 0.2 -0.2 0.2
v 0.2 -0.1 0.2
v 0.2 0 0.2
v 0.2 0.1 0.2
v -0.3 -0.3 0.1
v -0.3 -0.2 0.1
v -0.3 0 0.1
v -0.3 0.1 0.1
v -0.2 -0.4 0.1
v -0.2 -0.3 0.1
v -0.2 -0.2 0.1
v -0.2 0 0.1
v -0.2 0.1 0.1
v -0.2 0.2 0.1
v -0.1 -0.4 0.1
v -0.1 -0.3 0.1
v -0.1 0.1 0.1
v -0.1 0.2 0.1
v 0.1 -0.4 0.1
v 0.1 -0.3 0.1
v 0.2 -0.4 0.1
v 0.2 -0.3 0.1
v 0.2 -0.2 0.1
v 0.3 -0.3 0.1
v 0.3 -0.2 0.1
v -0.3 -0.3 -0.1
v -0.3 -0.2 -0.1
v -0.3 0 -0.1
v -0.3 0.1 -0.1
v -0.2 -0.4 -0.1
v -0.2 -0.3 -0.1
v -0.2 -0.2 -0.1
v -0.2 0 -0.1
v -0.2 0.1 -0.1
v -0.2 0.2 -0.1
v -0.1 -0.4 -0.1
v -0.1 -0.3 -0.1
v -0.1 0.1 -0.1
v -0.1 0.2 -0.1
v 0.1 -0.4 -0.1
v 0.1 -0.3 -0.1
v 0.2 -0.4 -0.1
v 0.2 -0.3 -0.1
v 0.2 -0.2 -0.1
v 0.3 -0.3 -0.1
v 0.3 -0.2 -0.1
v -0.3 -0.2 -0.2
v -0.3 0 -0.2
v -0.2 -0.3 -0.2
v -0.2 -0.2 -0.2
v -0.2 0 -0.2
v -0.2 0.1 -0.2
v -0.1 -0.4 -0.2
v -0.1 -0.3 -0.2
v -0.1 0 -0.2
v -0.1 0.1 -0.2
v -0.1 0.2 -0.2
v 0 -0.2 -0.2
v 0 -0.1 -0.2
v 0.1 -0.4 -0.2
v 0.1 -0.3 -0.2
v 0.1 -0.2 -0.2
v 0.1 -0.1 -0.2
v 0.1 0 -0.2
v 0.1 0.1 -0.2
v 0.1 0.2 -0.2
v 0.2 -0.3 -0.2
v 0.2 -0.2 -0.2
v 0.2 -0.1 -0.2
v 0.2 0 -0.2
v 0.2 0.1 -0.2
v -0.2 -0.2 -0.3
v -0.2 0 -0.3
v -0.1 0 -0.3
v -0.1 0.1 -0.3
v 0 -0.2 -0.3
v 0 -0.1 -0.3
v 0.1 0 -0.3
v 0.1 0.1 -0.3
v 0.2 -0.1 -0.3
v 0.2 0 -0.3
v -0.1 -0.4 0.2
v 0.1 -0.4 0.2
v -0.2 -0.4 0.1
v -0.1 -0.4 0.1
v 0.1 -0.4 0.1
v 0.2 -0.4 0.1
v -0.2 -0.4 -0.1
v -0.1 -0.4 -0.1
v 0.1 -0.4 -0.1
v 0.2 -0.4 -0.1
v -0.1 -0.4 -0.2
v 0.1 -0.4 -0.2
v -0.2 -0.3 0.2
v -0.1 -0.3 0.2
v 0.1 -0.3 0.2
v 0.2 -0.3 0.2
v -0.3 -0.3 0.1
v -0.2 -0.3 0.1
v -0.1 -0.3 0.1
v 0.1 -0.3 0.1
v 0.2 -0.3 0.1
v 0.3 -0.3 0.1
v -0.3 -0.3 -0.1
v -0.2 -0.3 -0.1
v -0.1 -0.3 -0.1
v 0.1 -0.3 -0.1
v 0.2 -0.3 -0.1
v 0.3 -0.3 -0.1
v -0.2 -0.3 -0.2
v -0.1 -0.3 -0.2
v 0.1 -0.3 -0.2
v 0.2 -0.3 -0.2
v -0.2 -0.2 0.3
v 0 -0.2 0.3
v -0.3 -0.2 0.2
v -0.2 -0.2 0.2
v 0 -0.2 0.2
v -0.3 -0.2 0.1
v -0.2 -0.2 0.1
v -0.3 -0.2 -0.1
v -0.2 -0.2 -0.1
v -0.3 -0.2 -0.2
v -0.2 -0.2 -0.2
v 0 -0.2 -0.2
v -0.2 -0.2 -0.3
v 0 -0.2 -0.3
v 0 -0.1 0.3
v 0.2 -0.1 0.3
v 0 -0.1 0.2
v 0.1 -0.1 0.2
v 0.2 -0.1 0.2
v 0 -0.1 -0.2
v 0.1 -0.1 -0.2
v 0.2 -0.1 -0.2
v 0 -0.1 -0.3
v 0.2 -0.1 -0.3
v 0.2 -0.2 0.1
v 0.3 -0.2 0.1
v 0.2 -0.2 -0.1
v 0.3 -0.2 -0.1
v -0.2 0 0.3
v -0.1 0 0.3
v 0.1 0 0.3
v 0.2 0 0.3
v -0.3 0 0.2
v -0.2 0 0.2
v -0.1 0 0.2
v 0.1 0 0.2
v 0.2 0 0.2
v -0.3 0 0.1
v -0.2 0 0.1
v -0.3 0 -0.1
v -0.2 0 -0.1
v -0.3 0 -0.2
v -0.2 0 -0.2
v -0.1 0 -0.2
v 0.1 0 -0.2
v 0.2 0 -0.2
v -0.2 0 -0.3
v -0.1 0 -0.3
v 0.1 0 -0.3
v 0.2 0 -0.3
v -0.1 0.1 0.3
v 0.1 0.1 0.3
v -0.2 0.1 0.2
v -0.1 0.1 0.2
v 0.1 0.1 0.2
v 0.2 0.1 0.2
v -0.3 0.1 0.1
v -0.2 0.1 0.1
v -0.1 0.1 0.1
v -0.3 0.1 -0.1
v -0.2 0.1 -0.1
v -0.1 0.1 -0.1
v -0.2 0.1 -0.2
v -0.1 0.1 -0.2
v 0.1 0.1 -0.2
v 0.2 0.1 -0.2
v -0.1 0.1 -0.3
v 0.1 0.1 -0.3
v -0.1 0.2 0.2
v 0.1 0.2 0.2
v -0.2 0.2 0.1
v -0.1 0.2 0.1
v -0.2 0.2 -0.1
v -0.1 0.2 -0.1
v -0.1 0.2 -0.2
v 0.1 0.2 -0.2

# faces
f 4/3/1 2/3/1 1/3/1
f 5/3/1 2/3/1 4/3/1
f 7/3/1 4/3/1 3/3/1
f 7/3/1 6/3/1 5/3/1
f 7/3/1 5/3/1 4/3/1
f 8/3/1 6/3/1 7/3/1
f 9/3/1 6/3/1 8/3/1
f 10/3/1 6/3/1 9/3/1
f 11/3/1 9/3/1 8/3/1
f 12/3/1 9/3/1 11/3/1
f 16/2/1 14/2/1 13/2/1
f 17/2/1 14/2/1 16/2/1
f 20/2/1 16/2/1 15/2/1
f 21/2/1 16/2/1 20/2/1
f 22/2/1 18/2/1 17/2/1
f 23/2/1 18/2/1 22/2/1
f 25/3/1 20/3/1 19/3/1
f 26/3/1 20/3/1 25/3/1
f 29/3/1 24/3/1 23/3/1
f 30/3/1 24/3/1 29/3/1
f 31/3/1 27/3/1 26/3/1
f 32/3/1 27/3/1 31/3/1
f 33/3/1 29/3/1 28/3/1
f 34/3/1 29/3/1 33/3/1
f 35/3/1 33/3/1 32/3/1
f 36/3/1 33/3/1 35/3/1
f 41/2/1 38/2/1 37/2/1
f 42/2/1 38/2/1 41/2/1
f 43/2/1 40/2/1 39/2/1
f 44/2/1 40/2/1 43/2/1
f 49/3/1 46/3/1 45/3/1
f 50/3/1 46/3/1 49/3/1
f 53/3/1 48/3/1 47/3/1
f 54/3/1 48/3/1 53/3/1
f 55/3/1 51/3/1 50/3/1
f 56/3/1 51/3/1 55/3/1
f 57/3/1 53/3/1 52/3/1
f 58/3/1 53/3/1 57/3/1
f 59/3/2 60/3/2 63/3/2
f 63/3/2 60/3/2 64/3/2
f 61/3/2 62/3/2 65/3/2
f 65/3/2 62/3/2 66/3/2
f 67/2/2 68/2/2 71/2/2
f 71/2/2 68/2/2 72/2/2
f 69/2/2 70/2/2 73/2/2
f 73/2/2 70/2/2 74/2/2
f 75/3/2 76/3/2 79/3/2
f 79/3/2 76/3/2 80/3/2
f 77/3/2 78/3/2 81/3/2
f 81/3/2 78/3/2 82/3/2
f 80/3/2 81/3/2 83/3/2
f 83/3/2 81/3/2 84/3/2
f 85/2/2 86/2/2 88/2/2
f 88/2/2 86/2/2 89/2/2
f 87/2/2 88/2/2 91/2/2
f 91/2/2 88/2/2 92/2/2
f 89/2/2 90/2/2 93/2/2
f 93/2/2 90/2/2 94/2/2
f 91/1/2 92/1/2 96/1/2
f 92/2/2 93/2/2 97/2/2
f 96/1/2 92/1/2 97/1/2
f 93/1/2 94/1/2 98/1/2
f 97/2/2 93/2/2 98/2/2
f 98/1/2 94/1/2 99/1/2
f 95/3/2 96/3/2 101/3/2
f 96/3/2 97/3/2 101/3/2
f 101/3/2 97/3/2 102/3/2
f 97/2/2 98/2/2 103/2/2
f 102/3/2 97/3/2 103/3/2
f 98/3/2 99/3/2 104/3/2
f 103/2/2 98/2/2 104/2/2
f 99/3/2 100/3/2 104/3/2
f 104/3/2 100/3/2 105/3/2
f 105/3/2 100/3/2 106/3/2
f 102/3/2 103/3/2 107/3/2
f 104/3/2 105/3/2 107/3/2
f 103/3/2 104/3/2 107/3/2
f 107/3/2 105/3/2 108/3/2
f 109/2/2 110/2/2 111/2/2
f 111/2/2 110/2/2 112/2/2
f 115/3/3 114/3/3 113/3/3
f 117/3/3 115/3/3 113/3/3
f 117/3/3 116/3/3 115/3/3
f 118/3/3 116/3/3 117/3/3
f 119/3/3 116/3/3 118/3/3
f 120/3/3 116/3/3 119/3/3
f 121/3/3 119/3/3 118/3/3
f 122/3/3 119/3/3 121/3/3
f 126/3/3 124/3/3 123/3/3
f 127/3/3 124/3/3 126/3/3
f 130/2/3 126/2/3 125/2/3
f 131/3/3 128/3/3 127/3/3
f 132/3/3 128/3/3 131/3/3
f 134/2/3 130/2/3 129/2/3
f 134/2/3 126/2/3 130/2/3
f 136/2/3 134/2/3 129/2/3
f 136/2/3 135/2/3 134/2/3
f 137/2/3 135/2/3 136/2/3
f 138/2/3 135/2/3 137/2/3
f 139/2/3 135/2/3 138/2/3
f 141/3/3 133/3/3 132/3/3
f 142/3/3 133/3/3 141/3/3
f 143/2/3 138/2/3 137/2/3
f 144/1/3 139/1/3 138/1/3
f 144/2/3 138/2/3 143/2/3
f 145/1/3 139/1/3 144/1/3
f 146/3/3 141/3/3 140/3/3
f 147/3/3 141/3/3 146/3/3
f 153/3/3 149/3/3 148/3/3
f 154/3/3 149/3/3 153/3/3
f 155/3/3 151/3/3 150/3/3
f 156/3/3 151/3/3 155/3/3
f 158/2/3 153/2/3 152/2/3
f 159/2/3 153/2/3 158/2/3
f 160/3/3 157/3/3 156/3/3
f 161/3/3 157/3/3 160/3/3
f 164/2/3 163/2/3 162/2/3
f 165/2/3 163/2/3 164/2/3
f 167/2/3 166/2/3 165/2/3
f 168/2/3 166/2/3 167/2/3
f 169/3/4 170/3/4 174/3/4
f 174/3/4 170/3/4 175/3/4
f 171/3/4 172/3/4 176/3/4
f 176/3/4 172/3/4 177/3/4
f 173/2/4 174/2/4 179/2/4
f 179/2/4 174/2/4 180/2/4
f 177/3/4 178/3/4 181/3/4
f 181/3/4 178/3/4 182/3/4
f 183/2/4 184/2/4 185/2/4
f 185/2/4 184/2/4 186/2/4
f 186/2/4 187/2/4 188/2/4
f 188/2/4 187/2/4 189/2/4
f 190/3/4 191/3/4 193/3/4
f 193/3/4 191/3/4 194/3/4
f 192/2/4 193/2/4 197/2/4
f 194/3/4 195/3/4 198/3/4
f 198/3/4 195/3/4 199/3/4
f 196/2/4 197/2/4 201/2/4
f 197/2/4 193/2/4 201/2/4
f 196/2/4 201/2/4 203/2/4
f 201/2/4 202/2/4 203/2/4
f 203/2/4 202/2/4 204/2/4
f 204/2/4 202/2/4 205/2/4
f 205/2/4 202/2/4 206/2/4
f 199/3/4 200/3/4 208/3/4
f 208/3/4 200/3/4 209/3/4
f 204/2/4 205/2/4 210/2/4
f 205/1/4 206/1/4 211/1/4
f 210/2/4 205/2/4 211/2/4
f 211/1/4 206/1/4 212/1/4
f 207/3/4 208/3/4 213/3/4
f 213/3/4 208/3/4 214/3/4
f 215/3/4 216/3/4 217/3/4
f 215/3/4 217/3/4 219/3/4
f 217/3/4 218/3/4 219/3/4
f 219/3/4 218/3/4 220/3/4
f 220/3/4 218/3/4 221/3/4
f 221/3/4 218/3/4 222/3/4
f 220/3/4 221/3/4 223/3/4
f 223/3/4 221/3/4 224/3/4
f 228/2/5 226/2/5 225/2/5
f 229/2/5 226/2/5 228/2/5
f 231/2/5 228/2/5 227/2/5
f 231/2/5 230/2/5 229/2/5
f 231/2/5 229/2/5 228/2/5
f 232/2/5 230/2/5 231/2/5
f 233/2/5 230/2/5 232/2/5
f 234/2/5 230/2/5 233/2/5
f 235/2/5 233/2/5 232/2/5
f 236/2/5 233/2/5 235/2/5
f 242/2/5 238/2/5 237/2/5
f 243/2/5 238/2/5 242/2/5
f 244/2/5 240/2/5 239/2/5
f 245/2/5 240/2/5 244/2/5
f 247/3/5 242/3/5 241/3/5
f 248/3/5 242/3/5 247/3/5
f 251/2/5 246/2/5 245/2/5
f 252/2/5 246/2/5 251/2/5
f 253/2/5 249/2/5 248/2/5
f 254/2/5 249/2/5 253/2/5
f 255/2/5 251/2/5 250/2/5
f 256/2/5 251/2/5 255/2/5
f 260/3/5 258/3/5 257/3/5
f 261/3/5 258/3/5 260/3/5
f 262/3/5 260/3/5 259/3/5
f 263/3/5 260/3/5 262/3/5
f 266/3/5 265/3/5 264/3/5
f 267/3/5 265/3/5 266/3/5
f 269/3/5 268/3/5 267/3/5
f 270/3/5 268/3/5 269/3/5
f 273/3/5 272/3/5 271/3/5
f 274/3/5 272/3/5 273/3/5
f 275/3/5 272/3/5 274/3/5
f 279/3/5 277/3/5 276/3/5
f 279/3/5 278/3/5 277/3/5
f 280/3/5 278/3/5 279/3/5
f 281/2/6 282/2/6 283/2/6
f 283/2/6 282/2/6 284/2/6
f 285/3/6 286/3/6 290/3/6
f 290/3/6 286/3/6 291/3/6
f 287/3/6 288/3/6 292/3/6
f 292/3/6 288/3/6 293/3/6
f 289/3/6 290/3/6 294/3/6
f 294/3/6 290/3/6 295/3/6
f 296/3/6 297/3/6 298/3/6
f 298/3/6 297/3/6 299/3/6
f 299/3/6 300/3/6 303/3/6
f 303/3/6 300/3/6 304/3/6
f 301/3/6 302/3/6 305/3/6
f 305/3/6 302/3/6 306/3/6
f 307/3/6 308/3/6 310/3/6
f 310/3/6 308/3/6 311/3/6
f 309/3/6 310/3/6 314/3/6
f 314/3/6 310/3/6 315/3/6
f 313/3/6 314/3/6 316/3/6
f 316/3/6 314/3/6 317/3/6
f 317/3/6 318/3/6 319/3/6
f 319/3/6 318/3/6 320/3/6
f 311/3/6 312/3/6 321/3/6
f 321/3/6 312/3/6 322/3/6
f 320/3/6 321/3/6 323/3/6
f 323/3/6 321/3/6 324/3/6
f 325/3/6 326/3/6 328/3/6
f 327/3/6 328/3/6 329/3/6
f 328/3/6 326/3/6 330/3/6
f 329/3/6 328/3/6 330/3/6
f 330/3/6 326/3/6 331/3/6
f 331/3/6 326/3/6 332/3/6
