# MagicaVoxel @ Ephtracy

# group
o 

# material
mtllib Knight1_Damage_F1.mtl
usemtl palette

# normals
vn -1 0 0
vn 1 0 0
vn 0 0 1
vn 0 0 -1
vn 0 -1 0
vn 0 1 0

# texcoords
vt 0.470703 0.5
vt 0.869141 0.5
vt 0.986328 0.5
vt 0.990234 0.5
vt 0.994141 0.5

# verts
v -0.3 -0.4 0.1
v -0.3 -0.4 -0.1
v -0.3 -0.3 0.2
v -0.3 -0.3 0.1
v -0.3 -0.3 -0.1
v -0.3 -0.3 -0.2
v -0.3 -0.2 0.1
v -0.3 -0.2 0
v -0.3 -0.1 0.1
v -0.3 -0.1 0
v -0.3 -0.1 -0.1
v -0.3 0 0.2
v -0.3 0 0.1
v -0.3 0 0
v -0.3 0 -0.1
v -0.3 0 -0.2
v -0.3 0.1 0.2
v -0.3 0.1 0.1
v -0.3 0.1 0
v -0.3 0.1 -0.1
v -0.3 0.1 -0.2
v -0.3 0.2 0.1
v -0.3 0.2 -0.1
v -0.2 -0.4 0.2
v -0.2 -0.4 0.1
v -0.2 -0.4 -0.1
v -0.2 -0.4 -0.2
v -0.2 -0.3 0.3
v -0.2 -0.3 0.2
v -0.2 -0.3 0.1
v -0.2 -0.3 -0.1
v -0.2 -0.3 -0.2
v -0.2 -0.3 -0.3
v -0.2 -0.2 0.1
v -0.2 -0.2 0
v -0.2 -0.1 0.1
v -0.2 -0.1 0
v -0.2 -0.1 -0.1
v -0.2 0 0.3
v -0.2 0 0.2
v -0.2 0 0.1
v -0.2 0 0
v -0.2 0 -0.1
v -0.2 0 -0.2
v -0.2 0 -0.3
v -0.2 0.1 0.3
v -0.2 0.1 0.2
v -0.2 0.1 0.1
v -0.2 0.1 0
v -0.2 0.1 -0.1
v -0.2 0.1 -0.2
v -0.2 0.1 -0.3
v -0.2 0.2 0.2
v -0.2 0.2 0.1
v -0.2 0.2 0
v -0.2 0.2 -0.1
v -0.2 0.2 -0.2
v -0.2 0.3 0.1
v -0.2 0.3 0
v -0.1 -0.4 0.3
v -0.1 -0.4 0.2
v -0.1 -0.4 -0.2
v -0.1 -0.4 -0.3
v -0.1 -0.3 0.3
v -0.1 -0.3 0.2
v -0.1 -0.3 -0.2
v -0.1 -0.3 -0.3
v -0.1 0.2 0
v -0.1 0.2 -0.1
v -0.1 0.3 0
v -0.1 0.3 -0.1
v 0 -0.2 -0.2
v 0 -0.2 -0.3
v 0 -0.1 -0.2
v 0 -0.1 -0.3
v 0 0 -0.2
v 0 0 -0.3
v 0 0.1 -0.1
v 0 0.1 -0.2
v 0 0.2 -0.1
v 0 0.2 -0.2
v 0.1 -0.3 -0.2
v 0.1 -0.3 -0.3
v 0.1 -0.2 0.3
v 0.1 -0.2 0.2
v 0.1 -0.2 -0.2
v 0.1 -0.2 -0.3
v 0.1 -0.1 0.3
v 0.1 -0.1 0.2
v 0.1 0 0.3
v 0.1 0 0.2
v 0.1 0 -0.2
v 0.1 0 -0.3
v 0.1 0.1 0.3
v 0.1 0.1 0.2
v 0.1 0.1 -0.2
v 0.1 0.1 -0.3
v 0.1 0.2 0.1
v 0.1 0.2 0
v 0.1 0.3 0.1
v 0.1 0.3 0
v -0.1 -0.2 0.3
v -0.1 -0.2 0.2
v -0.1 -0.2 -0.2
v -0.1 -0.2 -0.3
v -0.1 -0.1 0.3
v -0.1 -0.1 0.2
v -0.1 0 0.3
v -0.1 0 0.2
v -0.1 0 -0.2
v -0.1 0 -0.3
v -0.1 0.1 0.3
v -0.1 0.1 0.2
v -0.1 0.1 -0.1
v -0.1 0.1 -0.2
v -0.1 0.2 -0.1
v -0.1 0.2 -0.2
v 0 -0.3 -0.2
v 0 -0.3 -0.3
v 0 -0.2 -0.2
v 0 -0.2 -0.3
v 0 0 -0.2
v 0 0 -0.3
v 0 0.1 -0.2
v 0 0.1 -0.3
v 0 0.2 0.1
v 0 0.2 0
v 0 0.3 0.1
v 0 0.3 0
v 0.1 0.1 0.2
v 0.1 0.1 0.1
v 0.1 0.1 -0.1
v 0.1 0.1 -0.2
v 0.1 0.2 0.2
v 0.1 0.2 0.1
v 0.1 0.2 0
v 0.1 0.2 -0.1
v 0.1 0.2 -0.2
v 0.1 0.3 0
v 0.1 0.3 -0.1
v 0.2 -0.4 0.3
v 0.2 -0.4 0.2
v 0.2 -0.4 -0.2
v 0.2 -0.4 -0.3
v 0.2 -0.3 0.3
v 0.2 -0.3 0.2
v 0.2 -0.3 0.1
v 0.2 -0.3 0
v 0.2 -0.3 -0.2
v 0.2 -0.3 -0.3
v 0.2 -0.2 0.2
v 0.2 -0.2 0.1
v 0.2 -0.2 0
v 0.2 -0.2 -0.1
v 0.2 -0.2 -0.2
v 0.2 -0.1 0.3
v 0.2 -0.1 0.2
v 0.2 -0.1 0.1
v 0.2 -0.1 -0.1
v 0.2 0 0.2
v 0.2 0 0.1
v 0.2 0 -0.1
v 0.2 0 -0.2
v 0.2 0 -0.3
v 0.2 0.1 0.3
v 0.2 0.1 0.2
v 0.2 0.1 -0.2
v 0.2 0.1 -0.3
v 0.2 0.2 0.1
v 0.2 0.2 0
v 0.2 0.3 0.1
v 0.2 0.3 0
v 0.3 -0.4 0.2
v 0.3 -0.4 0.1
v 0.3 -0.4 0
v 0.3 -0.4 -0.1
v 0.3 -0.4 -0.2
v 0.3 -0.3 0.3
v 0.3 -0.3 0.2
v 0.3 -0.3 0.1
v 0.3 -0.3 0
v 0.3 -0.3 -0.2
v 0.3 -0.3 -0.3
v 0.3 -0.2 0.2
v 0.3 -0.2 0.1
v 0.3 -0.2 0
v 0.3 -0.2 -0.1
v 0.3 -0.2 -0.2
v 0.3 -0.1 0.3
v 0.3 -0.1 0.2
v 0.3 -0.1 0.1
v 0.3 -0.1 -0.1
v 0.3 0 0.2
v 0.3 0 0.1
v 0.3 0 0
v 0.3 0 -0.1
v 0.3 0 -0.2
v 0.3 0 -0.3
v 0.3 0.1 0.2
v 0.3 0.1 0.1
v 0.3 0.1 0
v 0.3 0.1 -0.1
v 0.3 0.1 -0.2
v 0.3 0.2 0.1
v 0.3 0.2 -0.1
v -0.2 -0.3 0.3
v -0.2 0 0.3
v -0.2 0.1 0.3
v -0.1 -0.4 0.3
v -0.1 -0.3 0.3
v -0.1 -0.2 0.3
v -0.1 -0.1 0.3
v -0.1 0 0.3
v -0.1 0.1 0.3
v 0 -0.1 0.3
v 0 0 0.3
v 0.1 -0.2 0.3
v 0.1 -0.1 0.3
v 0.1 0 0.3
v 0.1 0.1 0.3
v 0.2 -0.4 0.3
v 0.2 -0.3 0.3
v 0.2 -0.1 0.3
v 0.2 0.1 0.3
v 0.3 -0.3 0.3
v 0.3 -0.1 0.3
v -0.3 -0.3 0.2
v -0.3 0 0.2
v -0.3 0.1 0.2
v -0.2 -0.4 0.2
v -0.2 -0.3 0.2
v -0.2 0 0.2
v -0.2 0.1 0.2
v -0.2 0.2 0.2
v -0.1 -0.4 0.2
v -0.1 -0.3 0.2
v -0.1 -0.2 0.2
v -0.1 -0.1 0.2
v -0.1 0 0.2
v -0.1 0.1 0.2
v 0 -0.1 0.2
v 0 0 0.2
v 0.1 -0.2 0.2
v 0.1 -0.1 0.2
v 0.1 0 0.2
v 0.1 0.1 0.2
v 0.1 0.2 0.2
v 0.2 -0.4 0.2
v 0.2 -0.3 0.2
v 0.2 0 0.2
v 0.2 0.1 0.2
v 0.3 -0.4 0.2
v 0.3 -0.3 0.2
v 0.3 0 0.2
v 0.3 0.1 0.2
v -0.3 -0.4 0.1
v -0.3 -0.3 0.1
v -0.3 0.1 0.1
v -0.3 0.2 0.1
v -0.2 -0.4 0.1
v -0.2 -0.3 0.1
v -0.2 0.1 0.1
v -0.2 0.2 0.1
v -0.2 0.3 0.1
v 0 0.2 0.1
v 0 0.3 0.1
v 0.1 0.1 0.1
v 0.1 0.2 0.1
v 0.1 0.3 0.1
v 0.2 -0.1 0.1
v 0.2 0 0.1
v 0.2 0.1 0.1
v 0.2 0.2 0.1
v 0.2 0.3 0.1
v 0.3 -0.1 0.1
v 0.3 0 0.1
v 0.3 0.1 0.1
v 0.3 0.2 0.1
v -0.3 -0.2 0
v -0.3 -0.1 0
v -0.3 0 0
v -0.3 0.1 0
v -0.2 -0.2 0
v -0.2 -0.1 0
v -0.2 0 0
v -0.2 0.1 0
v 0 0.2 0
v 0 0.3 0
v 0.1 0.2 0
v 0.1 0.3 0
v 0.2 -0.3 0
v 0.2 -0.2 0
v 0.3 -0.3 0
v 0.3 -0.2 0
v -0.3 -0.1 -0.1
v -0.3 0 -0.1
v -0.2 -0.1 -0.1
v -0.2 0 -0.1
v 0.2 -0.2 -0.2
v 0.2 0 -0.2
v 0.3 -0.2 -0.2
v 0.3 0 -0.2
v 0.2 -0.2 0.2
v 0.2 -0.1 0.2
v 0.3 -0.2 0.2
v 0.3 -0.1 0.2
v -0.3 -0.2 0.1
v -0.3 -0.1 0.1
v -0.3 0 0.1
v -0.3 0.1 0.1
v -0.2 -0.2 0.1
v -0.2 -0.1 0.1
v -0.2 0 0.1
v -0.2 0.1 0.1
v 0.2 -0.3 0.1
v 0.2 -0.2 0.1
v 0.3 -0.3 0.1
v 0.3 -0.2 0.1
v -0.3 -0.1 0
v -0.3 0 0
v -0.2 -0.1 0
v -0.2 0 0
v -0.2 0.2 0
v -0.2 0.3 0
v -0.1 0.2 0
v -0.1 0.3 0
v 0.1 0.2 0
v 0.1 0.3 0
v 0.2 0.2 0
v 0.2 0.3 0
v -0.3 -0.4 -0.1
v -0.3 -0.3 -0.1
v -0.3 0.1 -0.1
v -0.3 0.2 -0.1
v -0.2 -0.4 -0.1
v -0.2 -0.3 -0.1
v -0.2 0.1 -0.1
v -0.2 0.2 -0.1
v -0.1 0.1 -0.1
v -0.1 0.2 -0.1
v -0.1 0.3 -0.1
v 0 0.1 -0.1
v 0 0.2 -0.1
v 0.1 0.1 -0.1
v 0.1 0.2 -0.1
v 0.1 0.3 -0.1
v 0.2 -0.1 -0.1
v 0.2 0 -0.1
v 0.2 0.1 -0.1
v 0.3 -0.1 -0.1
v 0.3 0 -0.1
v 0.3 0.1 -0.1
v 0.3 0.2 -0.1
v -0.3 -0.3 -0.2
v -0.3 0 -0.2
v -0.3 0.1 -0.2
v -0.2 -0.4 -0.2
v -0.2 -0.3 -0.2
v -0.2 0 -0.2
v -0.2 0.1 -0.2
v -0.2 0.2 -0.2
v -0.1 -0.4 -0.2
v -0.1 -0.3 -0.2
v -0.1 -0.2 -0.2
v -0.1 0 -0.2
v -0.1 0.1 -0.2
v -0.1 0.2 -0.2
v 0 -0.3 -0.2
v 0 -0.2 -0.2
v 0 -0.1 -0.2
v 0 0 -0.2
v 0 0.1 -0.2
v 0 0.2 -0.2
v 0.1 -0.3 -0.2
v 0.1 -0.2 -0.2
v 0.1 0 -0.2
v 0.1 0.1 -0.2
v 0.1 0.2 -0.2
v 0.2 -0.4 -0.2
v 0.2 -0.3 -0.2
v 0.2 0 -0.2
v 0.2 0.1 -0.2
v 0.3 -0.4 -0.2
v 0.3 -0.3 -0.2
v 0.3 0 -0.2
v 0.3 0.1 -0.2
v -0.2 -0.3 -0.3
v -0.2 0 -0.3
v -0.2 0.1 -0.3
v -0.1 -0.4 -0.3
v -0.1 -0.3 -0.3
v -0.1 -0.2 -0.3
v -0.1 0 -0.3
v 0 -0.3 -0.3
v 0 -0.2 -0.3
v 0 -0.1 -0.3
v 0 0 -0.3
v 0 0.1 -0.3
v 0.1 -0.3 -0.3
v 0.1 -0.2 -0.3
v 0.1 0 -0.3
v 0.1 0.1 -0.3
v 0.2 -0.4 -0.3
v 0.2 -0.3 -0.3
v 0.2 -0.1 -0.3
v 0.2 0 -0.3
v 0.2 0.1 -0.3
v 0.3 -0.3 -0.3
v 0.3 0 -0.3
v -0.1 -0.4 0.3
v 0.2 -0.4 0.3
v -0.2 -0.4 0.2
v -0.1 -0.4 0.2
v 0.2 -0.4 0.2
v 0.3 -0.4 0.2
v -0.3 -0.4 0.1
v -0.2 -0.4 0.1
v 0.2 -0.4 0.1
v 0.3 -0.4 0.1
v 0.2 -0.4 0
v 0.3 -0.4 0
v -0.3 -0.4 -0.1
v -0.2 -0.4 -0.1
v 0.2 -0.4 -0.1
v 0.3 -0.4 -0.1
v -0.2 -0.4 -0.2
v -0.1 -0.4 -0.2
v 0.2 -0.4 -0.2
v 0.3 -0.4 -0.2
v -0.1 -0.4 -0.3
v 0.2 -0.4 -0.3
v -0.2 -0.3 0.3
v -0.1 -0.3 0.3
v 0.2 -0.3 0.3
v 0.3 -0.3 0.3
v -0.3 -0.3 0.2
v -0.2 -0.3 0.2
v -0.1 -0.3 0.2
v 0.2 -0.3 0.2
v 0.3 -0.3 0.2
v -0.3 -0.3 0.1
v -0.2 -0.3 0.1
v -0.3 -0.3 -0.1
v -0.2 -0.3 -0.1
v -0.3 -0.3 -0.2
v -0.2 -0.3 -0.2
v -0.1 -0.3 -0.2
v 0.2 -0.3 -0.2
v 0.3 -0.3 -0.2
v -0.2 -0.3 -0.3
v -0.1 -0.3 -0.3
v 0.2 -0.3 -0.3
v 0.3 -0.3 -0.3
v 0 -0.2 -0.2
v 0.1 -0.2 -0.2
v 0 -0.2 -0.3
v 0.1 -0.2 -0.3
v -0.1 -0.1 0.3
v 0 -0.1 0.3
v 0.1 -0.1 0.3
v -0.1 -0.1 0.2
v 0 -0.1 0.2
v 0.1 -0.1 0.2
v -0.3 -0.1 0.1
v -0.2 -0.1 0.1
v 0.2 -0.1 0.1
v 0.3 -0.1 0.1
v -0.3 -0.1 0
v -0.2 -0.1 0
v 0.2 -0.1 -0.1
v 0.3 -0.1 -0.1
v 0.2 0 0.2
v 0.3 0 0.2
v 0.2 0 0.1
v 0.3 0 0.1
v -0.3 0 0
v -0.2 0 0
v -0.3 0 -0.1
v -0.2 0 -0.1
v 0.2 0 -0.1
v 0.3 0 -0.1
v -0.1 0 -0.2
v 0 0 -0.2
v 0.2 0 -0.2
v 0.3 0 -0.2
v -0.1 0 -0.3
v 0 0 -0.3
v -0.3 0.1 0.1
v -0.2 0.1 0.1
v -0.3 0.1 0
v -0.2 0.1 0
v 0.2 -0.3 0.1
v 0.3 -0.3 0.1
v 0.2 -0.3 0
v 0.3 -0.3 0
v 0 -0.3 -0.2
v 0.1 -0.3 -0.2
v 0 -0.3 -0.3
v 0.1 -0.3 -0.3
v -0.1 -0.2 0.3
v 0.1 -0.2 0.3
v -0.1 -0.2 0.2
v 0.1 -0.2 0.2
v 0.2 -0.2 0.2
v 0.3 -0.2 0.2
v -0.3 -0.2 0.1
v -0.2 -0.2 0.1
v 0.2 -0.2 0.1
v 0.3 -0.2 0.1
v -0.3 -0.2 0
v -0.2 -0.2 0
v 0.2 -0.2 0
v 0.3 -0.2 0
v 0.2 -0.2 -0.1
v 0.3 -0.2 -0.1
v -0.1 -0.2 -0.2
v 0 -0.2 -0.2
v 0.2 -0.2 -0.2
v 0.3 -0.2 -0.2
v -0.1 -0.2 -0.3
v 0 -0.2 -0.3
v 0.2 -0.1 0.3
v 0.3 -0.1 0.3
v 0.2 -0.1 0.2
v 0.3 -0.1 0.2
v -0.3 -0.1 0
v -0.2 -0.1 0
v -0.3 -0.1 -0.1
v -0.2 -0.1 -0.1
v -0.1 0 0.3
v 0 0 0.3
v 0.1 0 0.3
v -0.1 0 0.2
v 0 0 0.2
v 0.1 0 0.2
v -0.3 0 0.1
v -0.2 0 0.1
v -0.3 0 0
v -0.2 0 0
v 0 0 -0.2
v 0.1 0 -0.2
v 0.2 0 -0.2
v 0.3 0 -0.2
v 0 0 -0.3
v 0.1 0 -0.3
v 0.2 0 -0.3
v 0.3 0 -0.3
v -0.2 0.1 0.3
v -0.1 0.1 0.3
v 0.1 0.1 0.3
v 0.2 0.1 0.3
v -0.3 0.1 0.2
v -0.2 0.1 0.2
v -0.1 0.1 0.2
v 0.1 0.1 0.2
v 0.2 0.1 0.2
v 0.3 0.1 0.2
v -0.3 0.1 0.1
v -0.2 0.1 0.1
v 0.1 0.1 0.1
v 0.2 0.1 0.1
v 0.3 0.1 0.1
v -0.3 0.1 -0.1
v -0.2 0.1 -0.1
v -0.1 0.1 -0.1
v 0 0.1 -0.1
v 0.1 0.1 -0.1
v 0.2 0.1 -0.1
v 0.3 0.1 -0.1
v -0.3 0.1 -0.2
v -0.2 0.1 -0.2
v -0.1 0.1 -0.2
v 0 0.1 -0.2
v 0.1 0.1 -0.2
v 0.2 0.1 -0.2
v 0.3 0.1 -0.2
v -0.2 0.1 -0.3
v 0 0.1 -0.3
v 0.1 0.1 -0.3
v 0.2 0.1 -0.3
v -0.2 0.2 0.2
v 0.1 0.2 0.2
v -0.3 0.2 0.1
v -0.2 0.2 0.1
v 0 0.2 0.1
v 0.1 0.2 0.1
v 0.2 0.2 0.1
v 0.3 0.2 0.1
v -0.2 0.2 0
v -0.1 0.2 0
v 0 0.2 0
v 0.1 0.2 0
v 0.2 0.2 0
v -0.3 0.2 -0.1
v -0.2 0.2 -0.1
v -0.1 0.2 -0.1
v 0 0.2 -0.1
v 0.1 0.2 -0.1
v 0.3 0.2 -0.1
v -0.2 0.2 -0.2
v -0.1 0.2 -0.2
v 0 0.2 -0.2
v 0.1 0.2 -0.2
v -0.2 0.3 0.1
v 0 0.3 0.1
v 0.1 0.3 0.1
v 0.2 0.3 0.1
v -0.2 0.3 0
v -0.1 0.3 0
v 0 0.3 0
v 0.1 0.3 0
v 0.2 0.3 0
v -0.1 0.3 -0.1
v 0.1 0.3 -0.1

# faces
f 4/5/1 2/5/1 1/5/1
f 5/5/1 2/5/1 4/5/1
f 7/5/1 4/5/1 3/5/1
f 7/5/1 6/5/1 5/5/1
f 7/5/1 5/5/1 4/5/1
f 8/5/1 6/5/1 7/5/1
f 9/5/1 7/5/1 3/5/1
f 10/5/1 6/5/1 8/5/1
f 11/5/1 6/5/1 10/5/1
f 12/5/1 9/5/1 3/5/1
f 12/5/1 10/5/1 9/5/1
f 13/5/1 10/5/1 12/5/1
f 14/5/1 10/5/1 13/5/1
f 15/5/1 6/5/1 11/5/1
f 16/5/1 6/5/1 15/5/1
f 17/4/1 13/4/1 12/4/1
f 18/4/1 13/4/1 17/4/1
f 19/4/1 16/4/1 15/4/1
f 19/4/1 15/4/1 14/4/1
f 20/4/1 16/4/1 19/4/1
f 21/4/1 16/4/1 20/4/1
f 22/2/1 19/2/1 18/2/1
f 22/2/1 20/2/1 19/2/1
f 23/2/1 20/2/1 22/2/1
f 29/5/1 25/5/1 24/5/1
f 30/5/1 25/5/1 29/5/1
f 31/5/1 27/5/1 26/5/1
f 32/5/1 27/5/1 31/5/1
f 36/1/1 35/1/1 34/1/1
f 37/1/1 35/1/1 36/1/1
f 39/5/1 29/5/1 28/5/1
f 40/5/1 29/5/1 39/5/1
f 42/1/1 38/1/1 37/1/1
f 43/1/1 38/1/1 42/1/1
f 44/5/1 33/5/1 32/5/1
f 45/5/1 33/5/1 44/5/1
f 46/4/1 40/4/1 39/4/1
f 47/4/1 40/4/1 46/4/1
f 48/1/1 42/1/1 41/1/1
f 49/1/1 42/1/1 48/1/1
f 51/4/1 45/4/1 44/4/1
f 52/4/1 45/4/1 51/4/1
f 53/4/1 48/4/1 47/4/1
f 54/4/1 48/4/1 53/4/1
f 56/4/1 51/4/1 50/4/1
f 57/4/1 51/4/1 56/4/1
f 58/2/1 55/2/1 54/2/1
f 59/2/1 55/2/1 58/2/1
f 64/5/1 61/5/1 60/5/1
f 65/5/1 61/5/1 64/5/1
f 66/5/1 63/5/1 62/5/1
f 67/5/1 63/5/1 66/5/1
f 70/2/1 69/2/1 68/2/1
f 71/2/1 69/2/1 70/2/1
f 74/5/1 73/5/1 72/5/1
f 75/5/1 73/5/1 74/5/1
f 76/4/1 75/4/1 74/4/1
f 77/4/1 75/4/1 76/4/1
f 80/4/1 79/4/1 78/4/1
f 81/4/1 79/4/1 80/4/1
f 86/5/1 83/5/1 82/5/1
f 87/5/1 83/5/1 86/5/1
f 88/5/1 85/5/1 84/5/1
f 89/5/1 85/5/1 88/5/1
f 94/4/1 91/4/1 90/4/1
f 95/4/1 91/4/1 94/4/1
f 96/4/1 93/4/1 92/4/1
f 97/4/1 93/4/1 96/4/1
f 100/2/1 99/2/1 98/2/1
f 101/2/1 99/2/1 100/2/1
f 102/5/2 103/5/2 106/5/2
f 106/5/2 103/5/2 107/5/2
f 104/5/2 105/5/2 110/5/2
f 110/5/2 105/5/2 111/5/2
f 108/4/2 109/4/2 112/4/2
f 112/4/2 109/4/2 113/4/2
f 114/4/2 115/4/2 116/4/2
f 116/4/2 115/4/2 117/4/2
f 118/5/2 119/5/2 120/5/2
f 120/5/2 119/5/2 121/5/2
f 122/4/2 123/4/2 124/4/2
f 124/4/2 123/4/2 125/4/2
f 126/2/2 127/2/2 128/2/2
f 128/2/2 127/2/2 129/2/2
f 130/4/2 131/4/2 134/4/2
f 134/4/2 131/4/2 135/4/2
f 132/4/2 133/4/2 137/4/2
f 137/4/2 133/4/2 138/4/2
f 136/2/2 137/2/2 139/2/2
f 139/2/2 137/2/2 140/2/2
f 141/5/2 142/5/2 145/5/2
f 145/5/2 142/5/2 146/5/2
f 143/5/2 144/5/2 149/5/2
f 149/5/2 144/5/2 150/5/2
f 147/1/2 148/1/2 152/1/2
f 152/1/2 148/1/2 153/1/2
f 151/1/2 152/1/2 157/1/2
f 154/1/2 155/1/2 157/1/2
f 153/1/2 154/1/2 157/1/2
f 152/1/2 153/1/2 157/1/2
f 157/1/2 155/1/2 158/1/2
f 158/1/2 155/1/2 159/1/2
f 156/4/2 157/4/2 160/4/2
f 157/1/2 158/1/2 160/1/2
f 160/1/2 158/1/2 161/1/2
f 159/1/2 155/1/2 162/1/2
f 162/1/2 155/1/2 163/1/2
f 156/4/2 160/4/2 165/4/2
f 165/4/2 160/4/2 166/4/2
f 163/4/2 164/4/2 167/4/2
f 167/4/2 164/4/2 168/4/2
f 169/2/2 170/2/2 171/2/2
f 171/2/2 170/2/2 172/2/2
f 173/4/2 174/4/2 179/4/2
f 174/3/2 175/3/2 180/3/2
f 179/4/2 174/4/2 180/4/2
f 175/4/2 176/4/2 181/4/2
f 180/3/2 175/3/2 181/3/2
f 176/3/2 177/3/2 182/3/2
f 178/4/2 179/4/2 184/4/2
f 179/4/2 180/4/2 184/4/2
f 184/4/2 180/4/2 185/4/2
f 181/4/2 176/4/2 186/4/2
f 176/3/2 182/3/2 187/3/2
f 186/4/2 176/4/2 187/4/2
f 182/4/2 183/4/2 188/4/2
f 187/3/2 182/3/2 188/3/2
f 178/4/2 184/4/2 189/4/2
f 189/4/2 184/4/2 190/4/2
f 191/4/2 192/4/2 194/4/2
f 194/4/2 192/4/2 195/4/2
f 195/4/2 192/4/2 196/4/2
f 188/4/2 183/4/2 197/4/2
f 197/4/2 183/4/2 198/4/2
f 193/5/2 194/5/2 199/5/2
f 194/5/2 195/5/2 199/5/2
f 199/5/2 195/5/2 200/5/2
f 195/4/2 196/4/2 201/4/2
f 200/5/2 195/5/2 201/5/2
f 196/4/2 197/4/2 201/4/2
f 201/4/2 197/4/2 202/4/2
f 202/4/2 197/4/2 203/4/2
f 200/4/2 201/4/2 204/4/2
f 201/4/2 202/4/2 204/4/2
f 204/4/2 202/4/2 205/4/2
f 210/5/3 207/5/3 206/5/3
f 211/5/3 207/5/3 210/5/3
f 212/5/3 207/5/3 211/5/3
f 213/4/3 208/4/3 207/4/3
f 213/5/3 207/5/3 212/5/3
f 214/4/3 208/4/3 213/4/3
f 215/5/3 213/5/3 212/5/3
f 216/5/3 213/5/3 215/5/3
f 217/5/3 210/5/3 209/5/3
f 217/5/3 211/5/3 210/5/3
f 218/4/3 216/4/3 215/4/3
f 219/4/3 216/4/3 218/4/3
f 221/5/3 217/5/3 209/5/3
f 221/5/3 218/5/3 217/5/3
f 222/5/3 218/5/3 221/5/3
f 223/4/3 219/4/3 218/4/3
f 223/5/3 218/5/3 222/5/3
f 223/4/3 220/4/3 219/4/3
f 224/4/3 220/4/3 223/4/3
f 225/4/3 223/4/3 222/4/3
f 226/4/3 223/4/3 225/4/3
f 231/5/3 228/5/3 227/5/3
f 232/4/3 229/4/3 228/4/3
f 232/5/3 228/5/3 231/5/3
f 233/4/3 229/4/3 232/4/3
f 235/5/3 231/5/3 230/5/3
f 236/5/3 231/5/3 235/5/3
f 240/4/3 234/4/3 233/4/3
f 241/1/3 238/1/3 237/1/3
f 242/1/3 240/1/3 239/1/3
f 243/1/3 241/1/3 237/1/3
f 244/1/3 241/1/3 243/1/3
f 245/1/3 240/1/3 242/1/3
f 246/4/3 234/4/3 240/4/3
f 246/1/3 240/1/3 245/1/3
f 247/4/3 234/4/3 246/4/3
f 252/4/3 249/4/3 248/4/3
f 253/4/3 249/4/3 252/4/3
f 254/5/3 251/5/3 250/5/3
f 255/5/3 251/5/3 254/5/3
f 260/5/3 257/5/3 256/5/3
f 261/5/3 257/5/3 260/5/3
f 262/2/3 259/2/3 258/2/3
f 263/2/3 259/2/3 262/2/3
f 265/2/3 264/2/3 263/2/3
f 266/2/3 264/2/3 265/2/3
f 272/4/3 268/4/3 267/4/3
f 273/2/3 269/2/3 268/2/3
f 273/4/3 268/4/3 272/4/3
f 274/2/3 269/2/3 273/2/3
f 275/4/3 271/4/3 270/4/3
f 276/4/3 271/4/3 275/4/3
f 277/4/3 273/4/3 272/4/3
f 278/4/3 273/4/3 277/4/3
f 283/5/3 280/5/3 279/5/3
f 284/5/3 280/5/3 283/5/3
f 285/4/3 282/4/3 281/4/3
f 286/4/3 282/4/3 285/4/3
f 289/2/3 288/2/3 287/2/3
f 290/2/3 288/2/3 289/2/3
f 293/4/3 292/4/3 291/4/3
f 294/4/3 292/4/3 293/4/3
f 297/5/3 296/5/3 295/5/3
f 298/5/3 296/5/3 297/5/3
f 301/4/3 300/4/3 299/4/3
f 302/4/3 300/4/3 301/4/3
f 303/4/4 304/4/4 305/4/4
f 305/4/4 304/4/4 306/4/4
f 307/5/4 308/5/4 311/5/4
f 311/5/4 308/5/4 312/5/4
f 309/4/4 310/4/4 313/4/4
f 313/4/4 310/4/4 314/4/4
f 315/4/4 316/4/4 317/4/4
f 317/4/4 316/4/4 318/4/4
f 319/5/4 320/5/4 321/5/4
f 321/5/4 320/5/4 322/5/4
f 323/2/4 324/2/4 325/2/4
f 325/2/4 324/2/4 326/2/4
f 327/2/4 328/2/4 329/2/4
f 329/2/4 328/2/4 330/2/4
f 331/5/4 332/5/4 335/5/4
f 335/5/4 332/5/4 336/5/4
f 333/2/4 334/2/4 337/2/4
f 337/2/4 334/2/4 338/2/4
f 339/4/4 340/4/4 342/4/4
f 340/2/4 341/2/4 343/2/4
f 342/4/4 340/4/4 343/4/4
f 343/2/4 341/2/4 345/2/4
f 345/2/4 341/2/4 346/2/4
f 344/4/4 345/4/4 349/4/4
f 347/4/4 348/4/4 350/4/4
f 350/4/4 348/4/4 351/4/4
f 349/4/4 345/4/4 352/4/4
f 352/4/4 345/4/4 353/4/4
f 354/5/4 355/5/4 358/5/4
f 355/4/4 356/4/4 359/4/4
f 358/5/4 355/5/4 359/5/4
f 359/4/4 356/4/4 360/4/4
f 357/5/4 358/5/4 362/5/4
f 362/5/4 358/5/4 363/5/4
f 360/4/4 361/4/4 366/4/4
f 366/4/4 361/4/4 367/4/4
f 364/1/4 365/1/4 369/1/4
f 369/1/4 365/1/4 370/1/4
f 370/1/4 365/1/4 371/1/4
f 368/1/4 369/1/4 374/1/4
f 374/1/4 369/1/4 375/1/4
f 371/1/4 372/1/4 376/1/4
f 372/4/4 373/4/4 377/4/4
f 376/1/4 372/1/4 377/1/4
f 377/4/4 373/4/4 378/4/4
f 379/3/4 380/3/4 383/3/4
f 383/3/4 380/3/4 384/3/4
f 381/4/4 382/4/4 385/4/4
f 385/4/4 382/4/4 386/4/4
f 387/5/4 388/5/4 391/5/4
f 391/5/4 388/5/4 392/5/4
f 388/4/4 389/4/4 393/4/4
f 392/5/4 388/5/4 393/5/4
f 391/5/4 392/5/4 394/5/4
f 390/5/4 391/5/4 394/5/4
f 394/5/4 392/5/4 395/5/4
f 393/4/4 389/4/4 397/4/4
f 397/4/4 389/4/4 398/4/4
f 390/5/4 394/5/4 399/5/4
f 395/5/4 396/5/4 400/5/4
f 396/4/4 397/4/4 401/4/4
f 390/5/4 399/5/4 403/5/4
f 399/5/4 400/5/4 403/5/4
f 403/5/4 400/5/4 404/5/4
f 401/4/4 402/4/4 405/4/4
f 404/5/4 400/5/4 405/5/4
f 396/4/4 401/4/4 405/4/4
f 400/5/4 396/5/4 405/5/4
f 405/4/4 402/4/4 406/4/4
f 406/4/4 402/4/4 407/4/4
f 404/4/4 405/4/4 408/4/4
f 405/4/4 406/4/4 408/4/4
f 408/4/4 406/4/4 409/4/4
f 413/5/5 411/5/5 410/5/5
f 414/5/5 411/5/5 413/5/5
f 417/5/5 413/5/5 412/5/5
f 417/5/5 414/5/5 413/5/5
f 418/4/5 415/4/5 414/4/5
f 418/5/5 414/5/5 417/5/5
f 419/4/5 415/4/5 418/4/5
f 420/5/5 417/5/5 416/5/5
f 420/5/5 418/5/5 417/5/5
f 420/3/5 419/3/5 418/3/5
f 421/3/5 419/3/5 420/3/5
f 422/5/5 420/5/5 416/5/5
f 423/5/5 420/5/5 422/5/5
f 424/4/5 421/4/5 420/4/5
f 424/5/5 420/5/5 423/5/5
f 425/4/5 421/4/5 424/4/5
f 426/5/5 424/5/5 423/5/5
f 427/5/5 424/5/5 426/5/5
f 428/3/5 425/3/5 424/3/5
f 428/5/5 424/5/5 427/5/5
f 429/3/5 425/3/5 428/3/5
f 430/5/5 428/5/5 427/5/5
f 431/5/5 428/5/5 430/5/5
f 437/5/5 433/5/5 432/5/5
f 438/5/5 433/5/5 437/5/5
f 439/4/5 435/4/5 434/4/5
f 440/4/5 435/4/5 439/4/5
f 441/5/5 437/5/5 436/5/5
f 442/5/5 437/5/5 441/5/5
f 445/5/5 444/5/5 443/5/5
f 446/5/5 444/5/5 445/5/5
f 450/5/5 447/5/5 446/5/5
f 451/5/5 447/5/5 450/5/5
f 452/4/5 449/4/5 448/4/5
f 453/4/5 449/4/5 452/4/5
f 456/5/5 455/5/5 454/5/5
f 457/5/5 455/5/5 456/5/5
f 461/5/5 459/5/5 458/5/5
f 462/4/5 460/4/5 459/4/5
f 462/5/5 459/5/5 461/5/5
f 463/4/5 460/4/5 462/4/5
f 468/5/5 465/5/5 464/5/5
f 469/5/5 465/5/5 468/5/5
f 470/4/5 467/4/5 466/4/5
f 471/4/5 467/4/5 470/4/5
f 474/5/5 473/5/5 472/5/5
f 475/5/5 473/5/5 474/5/5
f 478/4/5 477/4/5 476/4/5
f 479/4/5 477/4/5 478/4/5
f 484/4/5 481/4/5 480/4/5
f 485/4/5 481/4/5 484/4/5
f 486/4/5 483/4/5 482/4/5
f 487/4/5 483/4/5 486/4/5
f 490/2/5 489/2/5 488/2/5
f 491/2/5 489/2/5 490/2/5
f 492/3/6 493/3/6 494/3/6
f 494/3/6 493/3/6 495/3/6
f 496/5/6 497/5/6 498/5/6
f 498/5/6 497/5/6 499/5/6
f 500/5/6 501/5/6 502/5/6
f 502/5/6 501/5/6 503/5/6
f 504/4/6 505/4/6 508/4/6
f 508/4/6 505/4/6 509/4/6
f 506/5/6 507/5/6 510/5/6
f 510/5/6 507/5/6 511/5/6
f 512/4/6 513/4/6 514/4/6
f 514/4/6 513/4/6 515/4/6
f 514/3/6 515/3/6 518/3/6
f 518/3/6 515/3/6 519/3/6
f 516/5/6 517/5/6 520/5/6
f 520/5/6 517/5/6 521/5/6
f 522/4/6 523/4/6 524/4/6
f 524/4/6 523/4/6 525/4/6
f 526/5/6 527/5/6 528/5/6
f 528/5/6 527/5/6 529/5/6
f 530/5/6 531/5/6 533/5/6
f 531/4/6 532/4/6 534/4/6
f 533/5/6 531/5/6 534/5/6
f 534/4/6 532/4/6 535/4/6
f 536/5/6 537/5/6 538/5/6
f 538/5/6 537/5/6 539/5/6
f 540/4/6 541/4/6 544/4/6
f 544/4/6 541/4/6 545/4/6
f 542/4/6 543/4/6 546/4/6
f 546/4/6 543/4/6 547/4/6
f 548/4/6 549/4/6 553/4/6
f 553/4/6 549/4/6 554/4/6
f 550/4/6 551/4/6 555/4/6
f 555/4/6 551/4/6 556/4/6
f 552/4/6 553/4/6 558/4/6
f 558/4/6 553/4/6 559/4/6
f 555/1/6 556/1/6 560/1/6
f 556/5/6 557/5/6 561/5/6
f 560/1/6 556/1/6 561/1/6
f 561/5/6 557/5/6 562/5/6
f 563/4/6 564/4/6 570/4/6
f 570/4/6 564/4/6 571/4/6
f 565/1/6 566/1/6 572/1/6
f 572/1/6 566/1/6 573/1/6
f 567/1/6 568/1/6 574/1/6
f 568/4/6 569/4/6 575/4/6
f 574/1/6 568/1/6 575/1/6
f 575/4/6 569/4/6 576/4/6
f 572/4/6 573/4/6 577/4/6
f 571/4/6 572/4/6 577/4/6
f 577/4/6 573/4/6 578/4/6
f 574/4/6 575/4/6 579/4/6
f 579/4/6 575/4/6 580/4/6
f 581/4/6 582/4/6 584/4/6
f 584/4/6 582/4/6 585/4/6
f 585/4/6 582/4/6 586/4/6
f 583/2/6 584/2/6 589/2/6
f 585/4/6 586/4/6 591/4/6
f 591/4/6 586/4/6 592/4/6
f 587/4/6 588/4/6 593/4/6
f 583/2/6 589/2/6 594/2/6
f 589/4/6 590/4/6 595/4/6
f 594/2/6 589/2/6 595/2/6
f 595/4/6 590/4/6 596/4/6
f 592/4/6 593/4/6 598/4/6
f 593/4/6 588/4/6 599/4/6
f 598/4/6 593/4/6 599/4/6
f 595/4/6 596/4/6 600/4/6
f 600/4/6 596/4/6 601/4/6
f 597/4/6 598/4/6 602/4/6
f 602/4/6 598/4/6 603/4/6
f 604/2/6 605/2/6 608/2/6
f 608/2/6 605/2/6 609/2/6
f 609/2/6 605/2/6 610/2/6
f 606/2/6 607/2/6 611/2/6
f 611/2/6 607/2/6 612/2/6
f 609/2/6 610/2/6 613/2/6
f 610/2/6 611/2/6 613/2/6
f 613/2/6 611/2/6 614/2/6
