# MagicaVoxel @ Ephtracy

# group
o 

# material
mtllib Trophy.mtl
usemtl palette

# normals
vn -1 0 0
vn 1 0 0
vn 0 0 1
vn 0 0 -1
vn 0 -1 0
vn 0 1 0

# texcoords
vt 0.939453 0.5
vt 0.943359 0.5
vt 0.951172 0.5

# verts
v -0.5 0 0.1
v -0.5 0 -0.1
v -0.5 0.1 0.1
v -0.5 0.1 -0.1
v -0.5 0.3 0.1
v -0.5 0.3 -0.1
v -0.4 -0.4 0.2
v -0.4 -0.4 0.1
v -0.4 -0.4 -0.1
v -0.4 -0.4 -0.2
v -0.4 -0.3 0.2
v -0.4 -0.3 0.1
v -0.4 -0.3 -0.1
v -0.4 -0.3 -0.2
v -0.4 -0.1 0.2
v -0.4 -0.1 -0.2
v -0.4 0 0.1
v -0.4 0 -0.1
v -0.4 0.1 0.2
v -0.4 0.1 0.1
v -0.4 0.1 -0.1
v -0.4 0.1 -0.2
v -0.4 0.2 0.2
v -0.4 0.2 0.1
v -0.4 0.2 -0.1
v -0.4 0.2 -0.2
v -0.4 0.3 0.2
v -0.4 0.3 0.1
v -0.4 0.3 -0.1
v -0.4 0.3 -0.2
v -0.3 -0.4 0.3
v -0.3 -0.4 0.2
v -0.3 -0.4 -0.2
v -0.3 -0.4 -0.3
v -0.3 -0.3 0.3
v -0.3 -0.3 0.2
v -0.3 -0.3 0.1
v -0.3 -0.3 -0.1
v -0.3 -0.3 -0.2
v -0.3 -0.3 -0.3
v -0.3 -0.2 0.1
v -0.3 -0.2 -0.1
v -0.3 -0.1 0.3
v -0.3 -0.1 0.2
v -0.3 -0.1 -0.2
v -0.3 -0.1 -0.3
v -0.3 0 0.3
v -0.3 0 0.2
v -0.3 0 -0.2
v -0.3 0 -0.3
v -0.3 0.1 0.2
v -0.3 0.1 -0.2
v -0.3 0.2 0.3
v -0.3 0.2 0.2
v -0.3 0.2 -0.2
v -0.3 0.2 -0.3
v -0.3 0.3 0.3
v -0.3 0.3 0.2
v -0.3 0.3 -0.2
v -0.3 0.3 -0.3
v -0.2 -0.3 0.2
v -0.2 -0.3 0.1
v -0.2 -0.3 -0.1
v -0.2 -0.3 -0.2
v -0.2 -0.2 0.2
v -0.2 -0.2 0.1
v -0.2 -0.2 -0.1
v -0.2 -0.2 -0.2
v -0.2 -0.1 0.1
v -0.2 -0.1 -0.1
v 0 0 0.2
v 0 0 0.1
v 0 0 -0.1
v 0 0 -0.2
v 0 0.1 0.2
v 0 0.1 -0.2
v 0 0.2 -0.1
v 0 0.2 -0.2
v 0 0.3 0.2
v 0 0.3 0.1
v 0 0.3 -0.1
v 0 0.3 -0.2
v 0.1 0 0.1
v 0.1 0 -0.1
v 0.1 0.2 0.1
v 0.1 0.2 -0.1
v 0.1 0.3 0.1
v 0.1 0.3 -0.1
v -0.3 0 0.1
v -0.3 0 -0.1
v -0.3 0.2 0.1
v -0.3 0.2 -0.1
v -0.3 0.3 0.1
v -0.3 0.3 -0.1
v -0.2 0 0.2
v -0.2 0 0.1
v -0.2 0 -0.1
v -0.2 0 -0.2
v -0.2 0.1 0.2
v -0.2 0.1 -0.2
v -0.2 0.2 0.2
v -0.2 0.2 0.1
v -0.2 0.2 -0.1
v -0.2 0.2 -0.2
v -0.2 0.3 0.2
v -0.2 0.3 0.1
v -0.2 0.3 -0.1
v -0.2 0.3 -0.2
v 0 -0.3 0.2
v 0 -0.3 0.1
v 0 -0.3 -0.1
v 0 -0.3 -0.2
v 0 -0.2 0.2
v 0 -0.2 0.1
v 0 -0.2 -0.1
v 0 -0.2 -0.2
v 0 -0.1 0.1
v 0 -0.1 -0.1
v 0.1 -0.4 0.3
v 0.1 -0.4 0.2
v 0.1 -0.4 -0.2
v 0.1 -0.4 -0.3
v 0.1 -0.3 0.3
v 0.1 -0.3 0.2
v 0.1 -0.3 0.1
v 0.1 -0.3 -0.1
v 0.1 -0.3 -0.2
v 0.1 -0.3 -0.3
v 0.1 -0.2 0.1
v 0.1 -0.2 -0.1
v 0.1 -0.1 0.3
v 0.1 -0.1 0.2
v 0.1 -0.1 -0.2
v 0.1 -0.1 -0.3
v 0.1 0 0.3
v 0.1 0 0.2
v 0.1 0 -0.2
v 0.1 0 -0.3
v 0.1 0.1 0.2
v 0.1 0.1 -0.2
v 0.1 0.2 0.3
v 0.1 0.2 0.2
v 0.1 0.2 -0.2
v 0.1 0.2 -0.3
v 0.1 0.3 0.3
v 0.1 0.3 0.2
v 0.1 0.3 -0.2
v 0.1 0.3 -0.3
v 0.2 -0.4 0.2
v 0.2 -0.4 0.1
v 0.2 -0.4 -0.1
v 0.2 -0.4 -0.2
v 0.2 -0.3 0.2
v 0.2 -0.3 0.1
v 0.2 -0.3 -0.1
v 0.2 -0.3 -0.2
v 0.2 -0.1 0.2
v 0.2 -0.1 -0.2
v 0.2 0 0.1
v 0.2 0 -0.1
v 0.2 0.1 0.2
v 0.2 0.1 0.1
v 0.2 0.1 -0.1
v 0.2 0.1 -0.2
v 0.2 0.2 0.2
v 0.2 0.2 0.1
v 0.2 0.2 -0.1
v 0.2 0.2 -0.2
v 0.2 0.3 0.2
v 0.2 0.3 0.1
v 0.2 0.3 -0.1
v 0.2 0.3 -0.2
v 0.3 0 0.1
v 0.3 0 -0.1
v 0.3 0.1 0.1
v 0.3 0.1 -0.1
v 0.3 0.3 0.1
v 0.3 0.3 -0.1
v -0.3 -0.4 0.3
v -0.3 -0.3 0.3
v -0.3 -0.1 0.3
v -0.3 0 0.3
v -0.3 0.2 0.3
v -0.3 0.3 0.3
v -0.2 -0.4 0.3
v -0.2 -0.3 0.3
v -0.2 -0.1 0.3
v -0.2 0 0.3
v -0.2 0.1 0.3
v -0.2 0.2 0.3
v 0 -0.4 0.3
v 0 -0.3 0.3
v 0 -0.1 0.3
v 0 0 0.3
v 0 0.1 0.3
v 0 0.2 0.3
v 0.1 -0.4 0.3
v 0.1 -0.3 0.3
v 0.1 -0.1 0.3
v 0.1 0 0.3
v 0.1 0.2 0.3
v 0.1 0.3 0.3
v -0.4 -0.4 0.2
v -0.4 -0.3 0.2
v -0.4 -0.1 0.2
v -0.4 0.1 0.2
v -0.4 0.2 0.2
v -0.4 0.3 0.2
v -0.3 -0.4 0.2
v -0.3 -0.3 0.2
v -0.3 -0.1 0.2
v -0.3 0 0.2
v -0.3 0.1 0.2
v -0.3 0.2 0.2
v -0.3 0.3 0.2
v -0.2 -0.3 0.2
v -0.2 -0.2 0.2
v 0 -0.3 0.2
v 0 -0.2 0.2
v 0.1 -0.4 0.2
v 0.1 -0.3 0.2
v 0.1 -0.1 0.2
v 0.1 0 0.2
v 0.1 0.1 0.2
v 0.1 0.2 0.2
v 0.1 0.3 0.2
v 0.2 -0.4 0.2
v 0.2 -0.3 0.2
v 0.2 -0.1 0.2
v 0.2 0.1 0.2
v 0.2 0.2 0.2
v 0.2 0.3 0.2
v -0.5 0 0.1
v -0.5 0.1 0.1
v -0.5 0.3 0.1
v -0.4 0 0.1
v -0.4 0.1 0.1
v -0.4 0.2 0.1
v -0.4 0.3 0.1
v -0.3 -0.3 0.1
v -0.3 -0.2 0.1
v -0.2 -0.3 0.1
v -0.2 -0.2 0.1
v -0.2 -0.1 0.1
v 0 -0.3 0.1
v 0 -0.2 0.1
v 0 -0.1 0.1
v 0.1 -0.3 0.1
v 0.1 -0.2 0.1
v 0.2 0 0.1
v 0.2 0.1 0.1
v 0.2 0.2 0.1
v 0.2 0.3 0.1
v 0.3 0 0.1
v 0.3 0.1 0.1
v 0.3 0.3 0.1
v -0.3 0 -0.1
v -0.3 0.2 -0.1
v -0.3 0.3 -0.1
v -0.2 0 -0.1
v -0.2 0.2 -0.1
v -0.2 0.3 -0.1
v 0 0 -0.1
v 0 0.2 -0.1
v 0 0.3 -0.1
v 0.1 0 -0.1
v 0.1 0.2 -0.1
v 0.1 0.3 -0.1
v -0.2 0 -0.2
v -0.2 0.1 -0.2
v -0.2 0.2 -0.2
v -0.2 0.3 -0.2
v 0 0 -0.2
v 0 0.1 -0.2
v 0 0.2 -0.2
v 0 0.3 -0.2
v -0.2 0 0.2
v -0.2 0.1 0.2
v -0.2 0.2 0.2
v -0.2 0.3 0.2
v 0 0 0.2
v 0 0.1 0.2
v 0 0.3 0.2
v -0.3 0 0.1
v -0.3 0.2 0.1
v -0.3 0.3 0.1
v -0.2 0 0.1
v -0.2 0.2 0.1
v -0.2 0.3 0.1
v 0 0 0.1
v 0 0.3 0.1
v 0.1 0 0.1
v 0.1 0.2 0.1
v 0.1 0.3 0.1
v -0.5 0 -0.1
v -0.5 0.1 -0.1
v -0.5 0.3 -0.1
v -0.4 0 -0.1
v -0.4 0.1 -0.1
v -0.4 0.2 -0.1
v -0.4 0.3 -0.1
v -0.3 -0.3 -0.1
v -0.3 -0.2 -0.1
v -0.2 -0.3 -0.1
v -0.2 -0.2 -0.1
v -0.2 -0.1 -0.1
v 0 -0.3 -0.1
v 0 -0.2 -0.1
v 0 -0.1 -0.1
v 0.1 -0.3 -0.1
v 0.1 -0.2 -0.1
v 0.2 0 -0.1
v 0.2 0.1 -0.1
v 0.2 0.2 -0.1
v 0.2 0.3 -0.1
v 0.3 0 -0.1
v 0.3 0.1 -0.1
v 0.3 0.3 -0.1
v -0.4 -0.4 -0.2
v -0.4 -0.3 -0.2
v -0.4 -0.1 -0.2
v -0.4 0.1 -0.2
v -0.4 0.2 -0.2
v -0.4 0.3 -0.2
v -0.3 -0.4 -0.2
v -0.3 -0.3 -0.2
v -0.3 -0.1 -0.2
v -0.3 0 -0.2
v -0.3 0.1 -0.2
v -0.3 0.2 -0.2
v -0.3 0.3 -0.2
v -0.2 -0.3 -0.2
v -0.2 -0.2 -0.2
v 0 -0.3 -0.2
v 0 -0.2 -0.2
v 0.1 -0.4 -0.2
v 0.1 -0.3 -0.2
v 0.1 -0.1 -0.2
v 0.1 0 -0.2
v 0.1 0.1 -0.2
v 0.1 0.2 -0.2
v 0.1 0.3 -0.2
v 0.2 -0.4 -0.2
v 0.2 -0.3 -0.2
v 0.2 -0.1 -0.2
v 0.2 0.1 -0.2
v 0.2 0.2 -0.2
v 0.2 0.3 -0.2
v -0.3 -0.4 -0.3
v -0.3 -0.3 -0.3
v -0.3 -0.1 -0.3
v -0.3 0 -0.3
v -0.3 0.2 -0.3
v -0.3 0.3 -0.3
v -0.2 -0.4 -0.3
v -0.2 -0.3 -0.3
v -0.2 -0.1 -0.3
v -0.2 0 -0.3
v -0.2 0.1 -0.3
v -0.2 0.2 -0.3
v 0 -0.4 -0.3
v 0 -0.3 -0.3
v 0 -0.1 -0.3
v 0 0 -0.3
v 0 0.1 -0.3
v 0 0.2 -0.3
v 0.1 -0.4 -0.3
v 0.1 -0.3 -0.3
v 0.1 -0.1 -0.3
v 0.1 0 -0.3
v 0.1 0.2 -0.3
v 0.1 0.3 -0.3
v -0.3 -0.4 0.3
v -0.2 -0.4 0.3
v 0 -0.4 0.3
v 0.1 -0.4 0.3
v -0.4 -0.4 0.2
v -0.3 -0.4 0.2
v -0.2 -0.4 0.2
v 0 -0.4 0.2
v 0.1 -0.4 0.2
v 0.2 -0.4 0.2
v -0.4 -0.4 0.1
v -0.3 -0.4 0.1
v -0.2 -0.4 0.1
v 0 -0.4 0.1
v 0.1 -0.4 0.1
v 0.2 -0.4 0.1
v -0.4 -0.4 -0.1
v -0.3 -0.4 -0.1
v -0.2 -0.4 -0.1
v 0 -0.4 -0.1
v 0.1 -0.4 -0.1
v 0.2 -0.4 -0.1
v -0.4 -0.4 -0.2
v -0.3 -0.4 -0.2
v -0.2 -0.4 -0.2
v 0 -0.4 -0.2
v 0.1 -0.4 -0.2
v 0.2 -0.4 -0.2
v -0.3 -0.4 -0.3
v -0.2 -0.4 -0.3
v 0 -0.4 -0.3
v 0.1 -0.4 -0.3
v -0.3 -0.1 0.3
v -0.2 -0.1 0.3
v 0 -0.1 0.3
v 0.1 -0.1 0.3
v -0.4 -0.1 0.2
v -0.3 -0.1 0.2
v -0.2 -0.1 0.2
v 0 -0.1 0.2
v 0.1 -0.1 0.2
v 0.2 -0.1 0.2
v -0.2 -0.1 0.1
v 0 -0.1 0.1
v -0.2 -0.1 -0.1
v 0 -0.1 -0.1
v -0.4 -0.1 -0.2
v -0.3 -0.1 -0.2
v -0.2 -0.1 -0.2
v 0 -0.1 -0.2
v 0.1 -0.1 -0.2
v 0.2 -0.1 -0.2
v -0.3 -0.1 -0.3
v -0.2 -0.1 -0.3
v 0 -0.1 -0.3
v 0.1 -0.1 -0.3
v -0.5 0 0.1
v -0.4 0 0.1
v 0.2 0 0.1
v 0.3 0 0.1
v -0.5 0 -0.1
v -0.4 0 -0.1
v 0.2 0 -0.1
v 0.3 0 -0.1
v -0.3 -0.3 0.3
v -0.2 -0.3 0.3
v 0 -0.3 0.3
v 0.1 -0.3 0.3
v -0.4 -0.3 0.2
v -0.3 -0.3 0.2
v -0.2 -0.3 0.2
v 0 -0.3 0.2
v 0.1 -0.3 0.2
v 0.2 -0.3 0.2
v -0.4 -0.3 0.1
v -0.3 -0.3 0.1
v -0.2 -0.3 0.1
v 0 -0.3 0.1
v 0.1 -0.3 0.1
v 0.2 -0.3 0.1
v -0.4 -0.3 -0.1
v -0.3 -0.3 -0.1
v -0.2 -0.3 -0.1
v 0 -0.3 -0.1
v 0.1 -0.3 -0.1
v 0.2 -0.3 -0.1
v -0.4 -0.3 -0.2
v -0.3 -0.3 -0.2
v -0.2 -0.3 -0.2
v 0 -0.3 -0.2
v 0.1 -0.3 -0.2
v 0.2 -0.3 -0.2
v -0.3 -0.3 -0.3
v -0.2 -0.3 -0.3
v 0 -0.3 -0.3
v 0.1 -0.3 -0.3
v -0.2 -0.2 0.2
v 0 -0.2 0.2
v -0.3 -0.2 0.1
v -0.2 -0.2 0.1
v 0 -0.2 0.1
v 0.1 -0.2 0.1
v -0.3 -0.2 -0.1
v -0.2 -0.2 -0.1
v 0 -0.2 -0.1
v 0.1 -0.2 -0.1
v -0.2 -0.2 -0.2
v 0 -0.2 -0.2
v -0.2 0 0.2
v 0 0 0.2
v -0.3 0 0.1
v -0.2 0 0.1
v 0 0 0.1
v 0.1 0 0.1
v -0.3 0 -0.1
v -0.2 0 -0.1
v 0 0 -0.1
v 0.1 0 -0.1
v -0.2 0 -0.2
v 0 0 -0.2
v -0.3 0.3 0.3
v 0.1 0.3 0.3
v -0.4 0.3 0.2
v -0.3 0.3 0.2
v -0.2 0.3 0.2
v 0 0.3 0.2
v 0.1 0.3 0.2
v 0.2 0.3 0.2
v -0.5 0.3 0.1
v -0.4 0.3 0.1
v -0.3 0.3 0.1
v -0.2 0.3 0.1
v 0 0.3 0.1
v 0.1 0.3 0.1
v 0.2 0.3 0.1
v 0.3 0.3 0.1
v -0.5 0.3 -0.1
v -0.4 0.3 -0.1
v -0.3 0.3 -0.1
v -0.2 0.3 -0.1
v 0 0.3 -0.1
v 0.1 0.3 -0.1
v 0.2 0.3 -0.1
v 0.3 0.3 -0.1
v -0.4 0.3 -0.2
v -0.3 0.3 -0.2
v -0.2 0.3 -0.2
v 0 0.3 -0.2
v 0.1 0.3 -0.2
v 0.2 0.3 -0.2
v -0.3 0.3 -0.3
v 0.1 0.3 -0.3

# faces
f 3/3/1 2/3/1 1/3/1
f 4/3/1 2/3/1 3/3/1
f 5/2/1 4/2/1 3/2/1
f 6/2/1 4/2/1 5/2/1
f 11/1/1 8/1/1 7/1/1
f 12/2/1 9/2/1 8/2/1
f 12/1/1 8/1/1 11/1/1
f 13/1/1 10/1/1 9/1/1
f 13/2/1 9/2/1 12/2/1
f 14/1/1 10/1/1 13/1/1
f 17/3/1 16/3/1 15/3/1
f 18/3/1 16/3/1 17/3/1
f 19/3/1 17/3/1 15/3/1
f 20/3/1 17/3/1 19/3/1
f 21/3/1 16/3/1 18/3/1
f 22/3/1 16/3/1 21/3/1
f 23/2/1 20/2/1 19/2/1
f 24/2/1 20/2/1 23/2/1
f 25/2/1 22/2/1 21/2/1
f 26/2/1 22/2/1 25/2/1
f 27/1/1 24/1/1 23/1/1
f 28/1/1 24/1/1 27/1/1
f 29/1/1 26/1/1 25/1/1
f 30/1/1 26/1/1 29/1/1
f 35/1/1 32/1/1 31/1/1
f 36/1/1 32/1/1 35/1/1
f 39/1/1 34/1/1 33/1/1
f 40/1/1 34/1/1 39/1/1
f 41/3/1 38/3/1 37/3/1
f 42/3/1 38/3/1 41/3/1
f 47/3/1 44/3/1 43/3/1
f 48/3/1 44/3/1 47/3/1
f 49/3/1 46/3/1 45/3/1
f 50/3/1 46/3/1 49/3/1
f 51/2/1 48/2/1 47/2/1
f 52/2/1 50/2/1 49/2/1
f 53/2/1 51/2/1 47/2/1
f 54/2/1 51/2/1 53/2/1
f 55/2/1 50/2/1 52/2/1
f 56/2/1 50/2/1 55/2/1
f 57/1/1 54/1/1 53/1/1
f 58/1/1 54/1/1 57/1/1
f 59/1/1 56/1/1 55/1/1
f 60/1/1 56/1/1 59/1/1
f 65/3/1 62/3/1 61/3/1
f 66/3/1 62/3/1 65/3/1
f 67/3/1 64/3/1 63/3/1
f 68/3/1 64/3/1 67/3/1
f 69/3/1 67/3/1 66/3/1
f 70/3/1 67/3/1 69/3/1
f 75/2/1 72/2/1 71/2/1
f 76/2/1 74/2/1 73/2/1
f 77/2/1 76/2/1 73/2/1
f 78/2/1 76/2/1 77/2/1
f 79/2/1 72/2/1 75/2/1
f 80/2/1 72/2/1 79/2/1
f 81/1/1 78/1/1 77/1/1
f 82/1/1 78/1/1 81/1/1
f 85/2/1 84/2/1 83/2/1
f 86/2/1 84/2/1 85/2/1
f 87/1/1 86/1/1 85/1/1
f 88/1/1 86/1/1 87/1/1
f 89/2/2 90/2/2 91/2/2
f 91/2/2 90/2/2 92/2/2
f 91/1/2 92/1/2 93/1/2
f 93/1/2 92/1/2 94/1/2
f 95/2/2 96/2/2 99/2/2
f 97/2/2 98/2/2 100/2/2
f 99/2/2 96/2/2 101/2/2
f 101/2/2 96/2/2 102/2/2
f 97/2/2 100/2/2 103/2/2
f 103/2/2 100/2/2 104/2/2
f 101/1/2 102/1/2 105/1/2
f 105/1/2 102/1/2 106/1/2
f 103/1/2 104/1/2 107/1/2
f 107/1/2 104/1/2 108/1/2
f 109/3/2 110/3/2 113/3/2
f 113/3/2 110/3/2 114/3/2
f 111/3/2 112/3/2 115/3/2
f 115/3/2 112/3/2 116/3/2
f 114/3/2 115/3/2 117/3/2
f 117/3/2 115/3/2 118/3/2
f 119/1/2 120/1/2 123/1/2
f 123/1/2 120/1/2 124/1/2
f 121/1/2 122/1/2 127/1/2
f 127/1/2 122/1/2 128/1/2
f 125/3/2 126/3/2 129/3/2
f 129/3/2 126/3/2 130/3/2
f 131/3/2 132/3/2 135/3/2
f 135/3/2 132/3/2 136/3/2
f 133/3/2 134/3/2 137/3/2
f 137/3/2 134/3/2 138/3/2
f 135/2/2 136/2/2 139/2/2
f 137/2/2 138/2/2 140/2/2
f 135/2/2 139/2/2 141/2/2
f 141/2/2 139/2/2 142/2/2
f 140/2/2 138/2/2 143/2/2
f 143/2/2 138/2/2 144/2/2
f 141/1/2 142/1/2 145/1/2
f 145/1/2 142/1/2 146/1/2
f 143/1/2 144/1/2 147/1/2
f 147/1/2 144/1/2 148/1/2
f 149/1/2 150/1/2 153/1/2
f 150/2/2 151/2/2 154/2/2
f 153/1/2 150/1/2 154/1/2
f 151/1/2 152/1/2 155/1/2
f 154/2/2 151/2/2 155/2/2
f 155/1/2 152/1/2 156/1/2
f 157/3/2 158/3/2 159/3/2
f 159/3/2 158/3/2 160/3/2
f 157/3/2 159/3/2 161/3/2
f 161/3/2 159/3/2 162/3/2
f 160/3/2 158/3/2 163/3/2
f 163/3/2 158/3/2 164/3/2
f 161/2/2 162/2/2 165/2/2
f 165/2/2 162/2/2 166/2/2
f 163/2/2 164/2/2 167/2/2
f 167/2/2 164/2/2 168/2/2
f 165/1/2 166/1/2 169/1/2
f 169/1/2 166/1/2 170/1/2
f 167/1/2 168/1/2 171/1/2
f 171/1/2 168/1/2 172/1/2
f 173/3/2 174/3/2 175/3/2
f 175/3/2 174/3/2 176/3/2
f 175/2/2 176/2/2 177/2/2
f 177/2/2 176/2/2 178/2/2
f 185/1/3 180/1/3 179/1/3
f 186/1/3 180/1/3 185/1/3
f 187/3/3 182/3/3 181/3/3
f 188/2/3 183/2/3 182/2/3
f 188/3/3 182/3/3 187/3/3
f 189/2/3 183/2/3 188/2/3
f 190/1/3 184/1/3 183/1/3
f 190/2/3 183/2/3 189/2/3
f 191/2/3 186/2/3 185/2/3
f 192/2/3 186/2/3 191/2/3
f 193/2/3 189/2/3 188/2/3
f 193/2/3 188/2/3 187/2/3
f 194/2/3 189/2/3 193/2/3
f 195/1/3 190/1/3 189/1/3
f 195/2/3 189/2/3 194/2/3
f 196/1/3 184/1/3 190/1/3
f 196/1/3 190/1/3 195/1/3
f 197/1/3 192/1/3 191/1/3
f 198/1/3 192/1/3 197/1/3
f 199/3/3 194/3/3 193/3/3
f 200/2/3 195/2/3 194/2/3
f 200/3/3 194/3/3 199/3/3
f 200/2/3 196/2/3 195/2/3
f 201/1/3 184/1/3 196/1/3
f 201/2/3 196/2/3 200/2/3
f 202/1/3 184/1/3 201/1/3
f 209/1/3 204/1/3 203/1/3
f 210/1/3 204/1/3 209/1/3
f 211/3/3 206/3/3 205/3/3
f 212/3/3 206/3/3 211/3/3
f 213/2/3 207/2/3 206/2/3
f 213/3/3 206/3/3 212/3/3
f 214/1/3 208/1/3 207/1/3
f 214/2/3 207/2/3 213/2/3
f 215/1/3 208/1/3 214/1/3
f 218/3/3 217/3/3 216/3/3
f 219/3/3 217/3/3 218/3/3
f 227/1/3 221/1/3 220/1/3
f 228/1/3 221/1/3 227/1/3
f 229/3/3 223/3/3 222/3/3
f 229/3/3 224/3/3 223/3/3
f 230/2/3 225/2/3 224/2/3
f 230/3/3 224/3/3 229/3/3
f 231/1/3 226/1/3 225/1/3
f 231/2/3 225/2/3 230/2/3
f 232/1/3 226/1/3 231/1/3
f 236/3/3 234/3/3 233/3/3
f 237/2/3 235/2/3 234/2/3
f 237/3/3 234/3/3 236/3/3
f 238/2/3 235/2/3 237/2/3
f 239/2/3 235/2/3 238/2/3
f 242/3/3 241/3/3 240/3/3
f 243/3/3 241/3/3 242/3/3
f 246/3/3 244/3/3 243/3/3
f 247/3/3 244/3/3 246/3/3
f 248/3/3 246/3/3 245/3/3
f 249/3/3 246/3/3 248/3/3
f 254/3/3 251/3/3 250/3/3
f 255/2/3 253/2/3 252/2/3
f 255/3/3 251/3/3 254/3/3
f 255/2/3 252/2/3 251/2/3
f 256/2/3 253/2/3 255/2/3
f 260/2/3 258/2/3 257/2/3
f 261/1/3 259/1/3 258/1/3
f 261/2/3 258/2/3 260/2/3
f 262/1/3 259/1/3 261/1/3
f 266/2/3 264/2/3 263/2/3
f 267/1/3 265/1/3 264/1/3
f 267/2/3 264/2/3 266/2/3
f 268/1/3 265/1/3 267/1/3
f 273/2/3 270/2/3 269/2/3
f 274/1/3 272/1/3 271/1/3
f 274/2/3 270/2/3 273/2/3
f 274/1/3 271/1/3 270/1/3
f 275/1/3 272/1/3 274/1/3
f 276/1/3 272/1/3 275/1/3
f 277/2/4 278/2/4 281/2/4
f 279/1/4 280/1/4 282/1/4
f 281/2/4 278/2/4 282/2/4
f 278/1/4 279/1/4 282/1/4
f 282/1/4 280/1/4 283/1/4
f 284/2/4 285/2/4 287/2/4
f 285/1/4 286/1/4 288/1/4
f 287/2/4 285/2/4 288/2/4
f 288/1/4 286/1/4 289/1/4
f 290/2/4 291/2/4 292/2/4
f 292/2/4 291/2/4 293/2/4
f 293/2/4 291/2/4 294/2/4
f 295/3/4 296/3/4 298/3/4
f 296/2/4 297/2/4 299/2/4
f 298/3/4 296/3/4 299/3/4
f 299/2/4 297/2/4 300/2/4
f 300/2/4 297/2/4 301/2/4
f 302/3/4 303/3/4 304/3/4
f 304/3/4 303/3/4 305/3/4
f 305/3/4 306/3/4 308/3/4
f 308/3/4 306/3/4 309/3/4
f 307/3/4 308/3/4 310/3/4
f 310/3/4 308/3/4 311/3/4
f 312/3/4 313/3/4 316/3/4
f 314/2/4 315/2/4 317/2/4
f 316/3/4 313/3/4 317/3/4
f 313/2/4 314/2/4 317/2/4
f 317/2/4 315/2/4 318/2/4
f 319/1/4 320/1/4 325/1/4
f 325/1/4 320/1/4 326/1/4
f 321/3/4 322/3/4 327/3/4
f 327/3/4 322/3/4 328/3/4
f 322/2/4 323/2/4 329/2/4
f 328/3/4 322/3/4 329/3/4
f 323/1/4 324/1/4 330/1/4
f 329/2/4 323/2/4 330/2/4
f 330/1/4 324/1/4 331/1/4
f 332/3/4 333/3/4 334/3/4
f 334/3/4 333/3/4 335/3/4
f 336/1/4 337/1/4 343/1/4
f 343/1/4 337/1/4 344/1/4
f 338/3/4 339/3/4 345/3/4
f 339/3/4 340/3/4 345/3/4
f 340/2/4 341/2/4 346/2/4
f 345/3/4 340/3/4 346/3/4
f 341/1/4 342/1/4 347/1/4
f 346/2/4 341/2/4 347/2/4
f 347/1/4 342/1/4 348/1/4
f 349/1/4 350/1/4 355/1/4
f 355/1/4 350/1/4 356/1/4
f 351/3/4 352/3/4 357/3/4
f 352/2/4 353/2/4 358/2/4
f 357/3/4 352/3/4 358/3/4
f 358/2/4 353/2/4 359/2/4
f 353/1/4 354/1/4 360/1/4
f 359/2/4 353/2/4 360/2/4
f 355/2/4 356/2/4 361/2/4
f 361/2/4 356/2/4 362/2/4
f 358/2/4 359/2/4 363/2/4
f 357/2/4 358/2/4 363/2/4
f 363/2/4 359/2/4 364/2/4
f 359/1/4 360/1/4 365/1/4
f 364/2/4 359/2/4 365/2/4
f 360/1/4 354/1/4 366/1/4
f 365/1/4 360/1/4 366/1/4
f 361/1/4 362/1/4 367/1/4
f 367/1/4 362/1/4 368/1/4
f 363/3/4 364/3/4 369/3/4
f 364/2/4 365/2/4 370/2/4
f 369/3/4 364/3/4 370/3/4
f 365/2/4 366/2/4 370/2/4
f 366/1/4 354/1/4 371/1/4
f 370/2/4 366/2/4 371/2/4
f 371/1/4 354/1/4 372/1/4
f 378/1/5 374/1/5 373/1/5
f 379/2/5 375/2/5 374/2/5
f 379/1/5 374/1/5 378/1/5
f 380/1/5 376/1/5 375/1/5
f 380/2/5 375/2/5 379/2/5
f 381/1/5 376/1/5 380/1/5
f 383/1/5 378/1/5 377/1/5
f 384/3/5 379/3/5 378/3/5
f 384/1/5 378/1/5 383/1/5
f 385/2/5 380/2/5 379/2/5
f 385/3/5 379/3/5 384/3/5
f 386/3/5 381/3/5 380/3/5
f 386/2/5 380/2/5 385/2/5
f 387/1/5 382/1/5 381/1/5
f 387/3/5 381/3/5 386/3/5
f 388/1/5 382/1/5 387/1/5
f 389/2/5 386/2/5 385/2/5
f 389/2/5 384/2/5 383/2/5
f 389/2/5 388/2/5 387/2/5
f 389/2/5 387/2/5 386/2/5
f 389/2/5 385/2/5 384/2/5
f 390/2/5 388/2/5 389/2/5
f 391/2/5 388/2/5 390/2/5
f 392/2/5 388/2/5 391/2/5
f 393/2/5 388/2/5 392/2/5
f 394/2/5 388/2/5 393/2/5
f 395/1/5 390/1/5 389/1/5
f 396/3/5 391/3/5 390/3/5
f 396/1/5 390/1/5 395/1/5
f 397/2/5 392/2/5 391/2/5
f 397/3/5 391/3/5 396/3/5
f 398/3/5 393/3/5 392/3/5
f 398/2/5 392/2/5 397/2/5
f 399/1/5 394/1/5 393/1/5
f 399/3/5 393/3/5 398/3/5
f 400/1/5 394/1/5 399/1/5
f 401/1/5 397/1/5 396/1/5
f 402/2/5 398/2/5 397/2/5
f 402/1/5 397/1/5 401/1/5
f 403/1/5 399/1/5 398/1/5
f 403/2/5 398/2/5 402/2/5
f 404/1/5 399/1/5 403/1/5
f 410/3/5 406/3/5 405/3/5
f 411/2/5 407/2/5 406/2/5
f 411/3/5 406/3/5 410/3/5
f 412/3/5 408/3/5 407/3/5
f 412/2/5 407/2/5 411/2/5
f 413/3/5 408/3/5 412/3/5
f 415/2/5 411/2/5 410/2/5
f 415/2/5 412/2/5 411/2/5
f 415/2/5 413/2/5 412/2/5
f 416/2/5 413/2/5 415/2/5
f 417/2/5 415/2/5 410/2/5
f 418/2/5 413/2/5 416/2/5
f 419/3/5 410/3/5 409/3/5
f 420/2/5 418/2/5 417/2/5
f 420/3/5 410/3/5 419/3/5
f 420/2/5 417/2/5 410/2/5
f 421/2/5 418/2/5 420/2/5
f 422/2/5 413/2/5 418/2/5
f 422/2/5 418/2/5 421/2/5
f 423/3/5 414/3/5 413/3/5
f 423/2/5 413/2/5 422/2/5
f 424/3/5 414/3/5 423/3/5
f 425/3/5 421/3/5 420/3/5
f 426/2/5 422/2/5 421/2/5
f 426/3/5 421/3/5 425/3/5
f 427/3/5 423/3/5 422/3/5
f 427/2/5 422/2/5 426/2/5
f 428/3/5 423/3/5 427/3/5
f 433/3/5 430/3/5 429/3/5
f 434/3/5 430/3/5 433/3/5
f 435/3/5 432/3/5 431/3/5
f 436/3/5 432/3/5 435/3/5
f 437/1/6 438/1/6 442/1/6
f 438/2/6 439/2/6 443/2/6
f 442/1/6 438/1/6 443/1/6
f 439/1/6 440/1/6 444/1/6
f 443/2/6 439/2/6 444/2/6
f 444/1/6 440/1/6 445/1/6
f 441/1/6 442/1/6 447/1/6
f 442/3/6 443/3/6 448/3/6
f 447/1/6 442/1/6 448/1/6
f 448/3/6 443/3/6 449/3/6
f 444/3/6 445/3/6 450/3/6
f 445/1/6 446/1/6 451/1/6
f 450/3/6 445/3/6 451/3/6
f 451/1/6 446/1/6 452/1/6
f 447/2/6 448/2/6 453/2/6
f 453/2/6 448/2/6 454/2/6
f 451/2/6 452/2/6 457/2/6
f 457/2/6 452/2/6 458/2/6
f 453/1/6 454/1/6 459/1/6
f 454/3/6 455/3/6 460/3/6
f 459/1/6 454/1/6 460/1/6
f 460/3/6 455/3/6 461/3/6
f 456/3/6 457/3/6 462/3/6
f 457/1/6 458/1/6 463/1/6
f 462/3/6 457/3/6 463/3/6
f 463/1/6 458/1/6 464/1/6
f 460/1/6 461/1/6 465/1/6
f 461/2/6 462/2/6 466/2/6
f 465/1/6 461/1/6 466/1/6
f 462/1/6 463/1/6 467/1/6
f 466/2/6 462/2/6 467/2/6
f 467/1/6 463/1/6 468/1/6
f 469/3/6 470/3/6 472/3/6
f 472/3/6 470/3/6 473/3/6
f 471/3/6 472/3/6 475/3/6
f 475/3/6 472/3/6 476/3/6
f 473/3/6 474/3/6 477/3/6
f 477/3/6 474/3/6 478/3/6
f 476/3/6 477/3/6 479/3/6
f 479/3/6 477/3/6 480/3/6
f 481/2/6 482/2/6 484/2/6
f 484/2/6 482/2/6 485/2/6
f 483/2/6 484/2/6 487/2/6
f 485/2/6 486/2/6 487/2/6
f 484/2/6 485/2/6 487/2/6
f 487/2/6 486/2/6 488/2/6
f 488/2/6 486/2/6 489/2/6
f 489/2/6 486/2/6 490/2/6
f 488/2/6 489/2/6 491/2/6
f 491/2/6 489/2/6 492/2/6
f 493/1/6 494/1/6 496/1/6
f 496/1/6 494/1/6 497/1/6
f 497/1/6 494/1/6 498/1/6
f 498/1/6 494/1/6 499/1/6
f 495/1/6 496/1/6 502/1/6
f 496/1/6 497/1/6 502/1/6
f 502/1/6 497/1/6 503/1/6
f 503/1/6 497/1/6 504/1/6
f 498/2/6 499/2/6 505/2/6
f 499/1/6 500/1/6 506/1/6
f 505/2/6 499/2/6 506/2/6
f 506/1/6 500/1/6 507/1/6
f 501/2/6 502/2/6 509/2/6
f 502/1/6 503/1/6 510/1/6
f 509/2/6 502/2/6 510/2/6
f 510/1/6 503/1/6 511/1/6
f 506/1/6 507/1/6 514/1/6
f 507/2/6 508/2/6 515/2/6
f 514/1/6 507/1/6 515/1/6
f 515/2/6 508/2/6 516/2/6
f 511/1/6 512/1/6 517/1/6
f 510/1/6 511/1/6 517/1/6
f 517/1/6 512/1/6 518/1/6
f 518/1/6 512/1/6 519/1/6
f 513/1/6 514/1/6 520/1/6
f 514/1/6 515/1/6 520/1/6
f 520/1/6 515/1/6 521/1/6
f 521/1/6 515/1/6 522/1/6
f 518/1/6 519/1/6 523/1/6
f 520/1/6 521/1/6 523/1/6
f 519/1/6 520/1/6 523/1/6
f 523/1/6 521/1/6 524/1/6
