# MagicaVoxel @ Ephtracy

# group
o 

# material
mtllib IceTowerCannon.mtl
usemtl palette

# normals
vn -1 0 0
vn 1 0 0
vn 0 0 1
vn 0 0 -1
vn 0 -1 0
vn 0 1 0

# texcoords
vt 0.669922 0.5
vt 0.673828 0.5
vt 0.677734 0.5
vt 0.736328 0.5
vt 0.744141 0.5

# verts
v -0.2 0 0.3
v -0.2 0 0.1
v -0.2 0 -0.3
v -0.2 0 -0.4
v -0.2 0.1 -0.2
v -0.2 0.1 -0.3
v -0.2 0.2 0.1
v -0.2 0.2 -0.2
v -0.2 0.2 -0.3
v -0.2 0.2 -0.4
v -0.2 0.4 0.3
v -0.2 0.4 0.1
v -0.2 0.6 0.3
v -0.2 0.6 0.1
v -0.1 -0.1 0.3
v -0.1 -0.1 0.1
v -0.1 -0.1 -0.2
v -0.1 -0.1 -0.4
v -0.1 0 0.4
v -0.1 0 0.3
v -0.1 0 0.1
v -0.1 0 -0.2
v -0.1 0 -0.3
v -0.1 0 -0.4
v -0.1 0.2 0.1
v -0.1 0.2 0
v -0.1 0.2 -0.2
v -0.1 0.2 -0.3
v -0.1 0.2 -0.4
v -0.1 0.3 0
v -0.1 0.3 -0.2
v -0.1 0.3 -0.3
v -0.1 0.3 -0.4
v -0.1 0.4 0.4
v -0.1 0.4 0.3
v -0.1 0.4 0.1
v -0.1 0.4 0
v -0.1 0.6 0.4
v -0.1 0.6 0.3
v -0.1 0.6 0.1
v -0.1 0.6 0
v -0.1 0.7 0.3
v -0.1 0.7 0.1
v 0.1 0 -0.3
v 0.1 0 -0.4
v 0.1 0.2 -0.3
v 0.1 0.2 -0.4
v -0.1 0 -0.3
v -0.1 0 -0.4
v -0.1 0.2 -0.3
v -0.1 0.2 -0.4
v 0.1 -0.1 0.3
v 0.1 -0.1 0.1
v 0.1 -0.1 -0.2
v 0.1 -0.1 -0.3
v 0.1 -0.1 -0.4
v 0.1 0 0.4
v 0.1 0 0.3
v 0.1 0 0.1
v 0.1 0 -0.2
v 0.1 0 -0.3
v 0.1 0 -0.4
v 0.1 0.2 0.1
v 0.1 0.2 0
v 0.1 0.2 -0.2
v 0.1 0.2 -0.3
v 0.1 0.2 -0.4
v 0.1 0.3 0
v 0.1 0.3 -0.3
v 0.1 0.3 -0.4
v 0.1 0.4 0.4
v 0.1 0.4 0.3
v 0.1 0.4 0.1
v 0.1 0.4 0
v 0.1 0.6 0.4
v 0.1 0.6 0.3
v 0.1 0.6 0.1
v 0.1 0.6 0
v 0.1 0.7 0.3
v 0.1 0.7 0.1
v 0.2 0 0.3
v 0.2 0 0.1
v 0.2 0 -0.3
v 0.2 0 -0.4
v 0.2 0.1 -0.2
v 0.2 0.1 -0.3
v 0.2 0.2 0.1
v 0.2 0.2 -0.2
v 0.2 0.2 -0.3
v 0.2 0.2 -0.4
v 0.2 0.4 0.3
v 0.2 0.4 0.1
v 0.2 0.6 0.3
v 0.2 0.6 0.1
v -0.1 0 0.4
v -0.1 0.4 0.4
v -0.1 0.6 0.4
v 0.1 0 0.4
v 0.1 0.4 0.4
v 0.1 0.6 0.4
v -0.2 0 0.3
v -0.2 0.4 0.3
v -0.2 0.6 0.3
v -0.1 -0.1 0.3
v -0.1 0 0.3
v -0.1 0.4 0.3
v -0.1 0.6 0.3
v -0.1 0.7 0.3
v 0.1 -0.1 0.3
v 0.1 0 0.3
v 0.1 0.4 0.3
v 0.1 0.6 0.3
v 0.1 0.7 0.3
v 0.2 0 0.3
v 0.2 0.4 0.3
v 0.2 0.6 0.3
v -0.2 0.2 0.1
v -0.2 0.4 0.1
v -0.2 0.6 0.1
v -0.1 0.2 0.1
v -0.1 0.4 0.1
v -0.1 0.6 0.1
v -0.1 0.7 0.1
v 0.1 0.2 0.1
v 0.1 0.4 0.1
v 0.1 0.6 0.1
v 0.1 0.7 0.1
v 0.2 0.2 0.1
v 0.2 0.4 0.1
v 0.2 0.6 0.1
v -0.1 0.3 0
v -0.1 0.4 0
v -0.1 0.6 0
v 0.1 0.3 0
v 0.1 0.4 0
v 0.1 0.6 0
v -0.1 0 -0.3
v -0.1 0.2 -0.3
v 0 0 -0.3
v 0 0.2 -0.3
v 0.1 0 -0.3
v 0.1 0.2 -0.3
v -0.2 0 -0.4
v -0.2 0.2 -0.4
v -0.1 -0.1 -0.4
v -0.1 0 -0.4
v -0.1 0.2 -0.4
v -0.1 0.3 -0.4
v 0 -0.1 -0.4
v 0 0 -0.4
v 0 0.2 -0.4
v 0 0.3 -0.4
v 0.1 -0.1 -0.4
v 0.1 0 -0.4
v 0.1 0.2 -0.4
v 0.1 0.3 -0.4
v 0.2 0 -0.4
v 0.2 0.2 -0.4
v -0.1 -0.1 0.3
v 0.1 -0.1 0.3
v -0.1 -0.1 0.1
v 0.1 -0.1 0.1
v -0.1 -0.1 -0.2
v 0.1 -0.1 -0.2
v 0 -0.1 -0.3
v 0.1 -0.1 -0.3
v -0.1 -0.1 -0.4
v 0 -0.1 -0.4
v 0.1 -0.1 -0.4
v -0.1 0 0.4
v 0.1 0 0.4
v -0.2 0 0.3
v -0.1 0 0.3
v 0.1 0 0.3
v 0.2 0 0.3
v -0.2 0 0.1
v -0.1 0 0.1
v 0.1 0 0.1
v 0.2 0 0.1
v -0.1 0 -0.2
v 0.1 0 -0.2
v -0.2 0 -0.3
v -0.1 0 -0.3
v 0.1 0 -0.3
v 0.2 0 -0.3
v -0.2 0 -0.4
v -0.1 0 -0.4
v 0.1 0 -0.4
v 0.2 0 -0.4
v -0.1 0.2 -0.3
v 0 0.2 -0.3
v 0.1 0.2 -0.3
v -0.1 0.2 -0.4
v 0 0.2 -0.4
v 0.1 0.2 -0.4
v -0.1 0 -0.3
v 0 0 -0.3
v 0.1 0 -0.3
v -0.1 0 -0.4
v 0 0 -0.4
v 0.1 0 -0.4
v -0.2 0.2 0.1
v -0.1 0.2 0.1
v 0.1 0.2 0.1
v 0.2 0.2 0.1
v -0.1 0.2 0
v 0.1 0.2 0
v -0.2 0.2 -0.2
v -0.1 0.2 -0.2
v 0.1 0.2 -0.2
v 0.2 0.2 -0.2
v -0.2 0.2 -0.3
v -0.1 0.2 -0.3
v 0.1 0.2 -0.3
v 0.2 0.2 -0.3
v -0.2 0.2 -0.4
v -0.1 0.2 -0.4
v 0.1 0.2 -0.4
v 0.2 0.2 -0.4
v -0.1 0.3 0
v 0.1 0.3 0
v -0.1 0.3 -0.2
v 0 0.3 -0.2
v -0.1 0.3 -0.3
v 0 0.3 -0.3
v 0.1 0.3 -0.3
v -0.1 0.3 -0.4
v 0 0.3 -0.4
v 0.1 0.3 -0.4
v -0.1 0.6 0.4
v 0.1 0.6 0.4
v -0.2 0.6 0.3
v -0.1 0.6 0.3
v 0.1 0.6 0.3
v 0.2 0.6 0.3
v -0.2 0.6 0.1
v -0.1 0.6 0.1
v 0.1 0.6 0.1
v 0.2 0.6 0.1
v -0.1 0.6 0
v 0.1 0.6 0
v -0.1 0.7 0.3
v 0.1 0.7 0.3
v -0.1 0.7 0.1
v 0.1 0.7 0.1

# faces
f 5/3/1 3/3/1 2/3/1
f 6/1/1 4/1/1 3/1/1
f 6/3/1 3/3/1 5/3/1
f 7/5/1 2/5/1 1/5/1
f 7/3/1 5/3/1 2/3/1
f 8/2/1 6/2/1 5/2/1
f 8/3/1 5/3/1 7/3/1
f 9/1/1 4/1/1 6/1/1
f 9/2/1 6/2/1 8/2/1
f 10/1/1 4/1/1 9/1/1
f 11/5/1 7/5/1 1/5/1
f 12/5/1 7/5/1 11/5/1
f 13/4/1 12/4/1 11/4/1
f 14/4/1 12/4/1 13/4/1
f 20/5/1 16/5/1 15/5/1
f 21/3/1 17/3/1 16/3/1
f 21/5/1 16/5/1 20/5/1
f 22/2/1 18/2/1 17/2/1
f 22/3/1 17/3/1 21/3/1
f 23/2/1 18/2/1 22/2/1
f 24/2/1 18/2/1 23/2/1
f 30/5/1 26/5/1 25/5/1
f 30/3/1 27/3/1 26/3/1
f 31/2/1 28/2/1 27/2/1
f 31/3/1 27/3/1 30/3/1
f 32/1/1 29/1/1 28/1/1
f 32/2/1 28/2/1 31/2/1
f 33/1/1 29/1/1 32/1/1
f 34/5/1 20/5/1 19/5/1
f 35/5/1 20/5/1 34/5/1
f 36/5/1 30/5/1 25/5/1
f 37/5/1 30/5/1 36/5/1
f 38/4/1 35/4/1 34/4/1
f 39/4/1 35/4/1 38/4/1
f 40/4/1 37/4/1 36/4/1
f 41/4/1 37/4/1 40/4/1
f 42/4/1 40/4/1 39/4/1
f 43/4/1 40/4/1 42/4/1
f 46/1/1 45/1/1 44/1/1
f 47/1/1 45/1/1 46/1/1
f 48/1/2 49/1/2 50/1/2
f 50/1/2 49/1/2 51/1/2
f 52/5/2 53/5/2 58/5/2
f 53/3/2 54/3/2 59/3/2
f 58/5/2 53/5/2 59/5/2
f 54/2/2 55/2/2 60/2/2
f 59/3/2 54/3/2 60/3/2
f 55/1/2 56/1/2 61/1/2
f 60/2/2 55/2/2 61/2/2
f 61/1/2 56/1/2 62/1/2
f 63/5/2 64/5/2 68/5/2
f 64/3/2 65/3/2 68/3/2
f 65/3/2 66/3/2 68/3/2
f 66/2/2 67/2/2 69/2/2
f 68/3/2 66/3/2 69/3/2
f 69/2/2 67/2/2 70/2/2
f 57/5/2 58/5/2 71/5/2
f 71/5/2 58/5/2 72/5/2
f 63/5/2 68/5/2 73/5/2
f 73/5/2 68/5/2 74/5/2
f 71/4/2 72/4/2 75/4/2
f 75/4/2 72/4/2 76/4/2
f 73/4/2 74/4/2 77/4/2
f 77/4/2 74/4/2 78/4/2
f 76/4/2 77/4/2 79/4/2
f 79/4/2 77/4/2 80/4/2
f 82/3/2 83/3/2 85/3/2
f 83/1/2 84/1/2 86/1/2
f 85/3/2 83/3/2 86/3/2
f 81/5/2 82/5/2 87/5/2
f 82/3/2 85/3/2 87/3/2
f 85/2/2 86/2/2 88/2/2
f 87/3/2 85/3/2 88/3/2
f 86/1/2 84/1/2 89/1/2
f 88/2/2 86/2/2 89/2/2
f 89/1/2 84/1/2 90/1/2
f 81/5/2 87/5/2 91/5/2
f 91/5/2 87/5/2 92/5/2
f 91/4/2 92/4/2 93/4/2
f 93/4/2 92/4/2 94/4/2
f 98/5/3 96/5/3 95/5/3
f 99/4/3 97/4/3 96/4/3
f 99/5/3 96/5/3 98/5/3
f 100/4/3 97/4/3 99/4/3
f 105/5/3 102/5/3 101/5/3
f 106/4/3 103/4/3 102/4/3
f 106/5/3 102/5/3 105/5/3
f 107/4/3 103/4/3 106/4/3
f 109/5/3 105/5/3 104/5/3
f 110/5/3 105/5/3 109/5/3
f 112/4/3 108/4/3 107/4/3
f 113/4/3 108/4/3 112/4/3
f 114/5/3 111/5/3 110/5/3
f 115/4/3 112/4/3 111/4/3
f 115/5/3 111/5/3 114/5/3
f 116/4/3 112/4/3 115/4/3
f 117/5/4 118/5/4 120/5/4
f 118/4/4 119/4/4 121/4/4
f 120/5/4 118/5/4 121/5/4
f 121/4/4 119/4/4 122/4/4
f 122/4/4 123/4/4 126/4/4
f 126/4/4 123/4/4 127/4/4
f 124/5/4 125/5/4 128/5/4
f 125/4/4 126/4/4 129/4/4
f 128/5/4 125/5/4 129/5/4
f 129/4/4 126/4/4 130/4/4
f 131/5/4 132/5/4 134/5/4
f 132/4/4 133/4/4 135/4/4
f 134/5/4 132/5/4 135/5/4
f 135/4/4 133/4/4 136/4/4
f 137/2/4 138/2/4 139/2/4
f 139/2/4 138/2/4 140/2/4
f 139/2/4 140/2/4 141/2/4
f 141/2/4 140/2/4 142/2/4
f 143/1/4 144/1/4 146/1/4
f 146/1/4 144/1/4 147/1/4
f 145/2/4 146/2/4 149/2/4
f 149/2/4 146/2/4 150/2/4
f 147/1/4 148/1/4 151/1/4
f 151/1/4 148/1/4 152/1/4
f 149/1/4 150/1/4 153/1/4
f 153/1/4 150/1/4 154/1/4
f 151/2/4 152/2/4 155/2/4
f 155/2/4 152/2/4 156/2/4
f 154/1/4 155/1/4 157/1/4
f 157/1/4 155/1/4 158/1/4
f 161/5/5 160/5/5 159/5/5
f 162/5/5 160/5/5 161/5/5
f 163/3/5 162/3/5 161/3/5
f 164/3/5 162/3/5 163/3/5
f 165/2/5 164/2/5 163/2/5
f 166/2/5 164/2/5 165/2/5
f 167/2/5 165/2/5 163/2/5
f 168/1/5 166/1/5 165/1/5
f 168/2/5 165/2/5 167/2/5
f 169/1/5 166/1/5 168/1/5
f 173/5/5 171/5/5 170/5/5
f 174/5/5 171/5/5 173/5/5
f 176/5/5 173/5/5 172/5/5
f 177/5/5 173/5/5 176/5/5
f 178/5/5 175/5/5 174/5/5
f 179/5/5 175/5/5 178/5/5
f 180/3/5 177/3/5 176/3/5
f 181/3/5 179/3/5 178/3/5
f 182/3/5 180/3/5 176/3/5
f 183/3/5 180/3/5 182/3/5
f 184/3/5 179/3/5 181/3/5
f 185/3/5 179/3/5 184/3/5
f 186/1/5 183/1/5 182/1/5
f 187/1/5 183/1/5 186/1/5
f 188/1/5 185/1/5 184/1/5
f 189/1/5 185/1/5 188/1/5
f 193/1/5 191/1/5 190/1/5
f 194/2/5 192/2/5 191/2/5
f 194/1/5 191/1/5 193/1/5
f 195/2/5 192/2/5 194/2/5
f 196/2/6 197/2/6 199/2/6
f 197/1/6 198/1/6 200/1/6
f 199/2/6 197/2/6 200/2/6
f 200/1/6 198/1/6 201/1/6
f 202/3/6 203/3/6 206/3/6
f 204/3/6 205/3/6 207/3/6
f 202/3/6 206/3/6 208/3/6
f 208/3/6 206/3/6 209/3/6
f 207/3/6 205/3/6 210/3/6
f 210/3/6 205/3/6 211/3/6
f 208/2/6 209/2/6 212/2/6
f 212/2/6 209/2/6 213/2/6
f 210/2/6 211/2/6 214/2/6
f 214/2/6 211/2/6 215/2/6
f 212/1/6 213/1/6 216/1/6
f 216/1/6 213/1/6 217/1/6
f 214/1/6 215/1/6 218/1/6
f 218/1/6 215/1/6 219/1/6
f 220/3/6 221/3/6 222/3/6
f 222/3/6 221/3/6 223/3/6
f 222/2/6 223/2/6 224/2/6
f 223/3/6 221/3/6 225/3/6
f 224/2/6 223/2/6 225/2/6
f 225/3/6 221/3/6 226/3/6
f 224/1/6 225/1/6 227/1/6
f 225/2/6 226/2/6 228/2/6
f 227/1/6 225/1/6 228/1/6
f 228/2/6 226/2/6 229/2/6
f 230/4/6 231/4/6 233/4/6
f 233/4/6 231/4/6 234/4/6
f 232/4/6 233/4/6 236/4/6
f 236/4/6 233/4/6 237/4/6
f 234/4/6 235/4/6 238/4/6
f 238/4/6 235/4/6 239/4/6
f 237/4/6 238/4/6 240/4/6
f 240/4/6 238/4/6 241/4/6
f 242/4/6 243/4/6 244/4/6
f 244/4/6 243/4/6 245/4/6
