# MagicaVoxel @ Ephtracy

# group
o 

# material
mtllib MagnetTower.mtl
usemtl palette

# normals
vn -1 0 0
vn 1 0 0
vn 0 0 1
vn 0 0 -1
vn 0 -1 0
vn 0 1 0

# texcoords
vt 0.736328 0.5
vt 0.865234 0.5
vt 0.943359 0.5
vt 0.986328 0.5
vt 0.994141 0.5

# verts
v -0.4 -0.4 0.2
v -0.4 -0.4 -0.2
v -0.4 -0.3 0.2
v -0.4 -0.3 -0.2
v -0.3 -0.4 0.3
v -0.3 -0.4 0.2
v -0.3 -0.4 -0.2
v -0.3 -0.4 -0.3
v -0.3 -0.3 0.3
v -0.3 -0.3 0.2
v -0.3 -0.3 -0.2
v -0.3 -0.3 -0.3
v -0.3 0 0.1
v -0.3 0 -0.1
v -0.3 0.3 0.1
v -0.3 0.3 -0.1
v -0.3 0.5 0.1
v -0.3 0.5 -0.1
v -0.2 -0.4 0.4
v -0.2 -0.4 0.3
v -0.2 -0.4 -0.3
v -0.2 -0.4 -0.4
v -0.2 -0.3 0.4
v -0.2 -0.3 0.3
v -0.2 -0.3 0.1
v -0.2 -0.3 -0.1
v -0.2 -0.3 -0.3
v -0.2 -0.3 -0.4
v -0.2 -0.2 0.1
v -0.2 -0.2 -0.1
v -0.2 -0.1 0.1
v -0.2 -0.1 -0.1
v -0.2 0 0.1
v -0.2 0 -0.1
v -0.1 -0.3 0.2
v -0.1 -0.3 0.1
v -0.1 -0.3 -0.1
v -0.1 -0.3 -0.2
v -0.1 -0.2 0.2
v -0.1 -0.2 0.1
v -0.1 -0.2 -0.1
v -0.1 -0.2 -0.2
v -0.1 -0.1 0.1
v -0.1 -0.1 -0.1
v 0.1 0.1 0.1
v 0.1 0.1 -0.1
v 0.1 0.3 0.1
v 0.1 0.3 -0.1
v 0.1 0.5 0.1
v 0.1 0.5 -0.1
v -0.1 0.1 0.1
v -0.1 0.1 -0.1
v -0.1 0.3 0.1
v -0.1 0.3 -0.1
v -0.1 0.5 0.1
v -0.1 0.5 -0.1
v 0.1 -0.3 0.2
v 0.1 -0.3 0.1
v 0.1 -0.3 -0.1
v 0.1 -0.3 -0.2
v 0.1 -0.2 0.2
v 0.1 -0.2 0.1
v 0.1 -0.2 -0.1
v 0.1 -0.2 -0.2
v 0.1 -0.1 0.1
v 0.1 -0.1 -0.1
v 0.2 -0.4 0.4
v 0.2 -0.4 0.3
v 0.2 -0.4 -0.3
v 0.2 -0.4 -0.4
v 0.2 -0.3 0.4
v 0.2 -0.3 0.3
v 0.2 -0.3 0.1
v 0.2 -0.3 -0.1
v 0.2 -0.3 -0.3
v 0.2 -0.3 -0.4
v 0.2 -0.2 0.1
v 0.2 -0.2 -0.1
v 0.2 -0.1 0.1
v 0.2 -0.1 -0.1
v 0.2 0 0.1
v 0.2 0 -0.1
v 0.3 -0.4 0.3
v 0.3 -0.4 0.2
v 0.3 -0.4 -0.2
v 0.3 -0.4 -0.3
v 0.3 -0.3 0.3
v 0.3 -0.3 0.2
v 0.3 -0.3 -0.2
v 0.3 -0.3 -0.3
v 0.3 0 0.1
v 0.3 0 -0.1
v 0.3 0.3 0.1
v 0.3 0.3 -0.1
v 0.3 0.5 0.1
v 0.3 0.5 -0.1
v 0.4 -0.4 0.2
v 0.4 -0.4 -0.2
v 0.4 -0.3 0.2
v 0.4 -0.3 -0.2
v -0.2 -0.4 0.4
v -0.2 -0.3 0.4
v 0.2 -0.4 0.4
v 0.2 -0.3 0.4
v -0.3 -0.4 0.3
v -0.3 -0.3 0.3
v -0.2 -0.4 0.3
v -0.2 -0.3 0.3
v 0.2 -0.4 0.3
v 0.2 -0.3 0.3
v 0.3 -0.4 0.3
v 0.3 -0.3 0.3
v -0.4 -0.4 0.2
v -0.4 -0.3 0.2
v -0.3 -0.4 0.2
v -0.3 -0.3 0.2
v -0.1 -0.3 0.2
v -0.1 -0.2 0.2
v 0.1 -0.3 0.2
v 0.1 -0.2 0.2
v 0.3 -0.4 0.2
v 0.3 -0.3 0.2
v 0.4 -0.4 0.2
v 0.4 -0.3 0.2
v -0.3 0 0.1
v -0.3 0.3 0.1
v -0.3 0.5 0.1
v -0.2 -0.3 0.1
v -0.2 -0.2 0.1
v -0.2 -0.1 0.1
v -0.2 0 0.1
v -0.1 -0.3 0.1
v -0.1 -0.2 0.1
v -0.1 -0.1 0.1
v -0.1 0.1 0.1
v -0.1 0.3 0.1
v -0.1 0.5 0.1
v 0.1 -0.3 0.1
v 0.1 -0.2 0.1
v 0.1 -0.1 0.1
v 0.1 0.1 0.1
v 0.1 0.3 0.1
v 0.1 0.5 0.1
v 0.2 -0.3 0.1
v 0.2 -0.2 0.1
v 0.2 -0.1 0.1
v 0.2 0 0.1
v 0.3 0 0.1
v 0.3 0.3 0.1
v 0.3 0.5 0.1
v -0.3 0 -0.1
v -0.3 0.3 -0.1
v -0.3 0.5 -0.1
v -0.2 -0.3 -0.1
v -0.2 -0.2 -0.1
v -0.2 -0.1 -0.1
v -0.2 0 -0.1
v -0.1 -0.3 -0.1
v -0.1 -0.2 -0.1
v -0.1 -0.1 -0.1
v -0.1 0.1 -0.1
v -0.1 0.3 -0.1
v -0.1 0.5 -0.1
v 0.1 -0.3 -0.1
v 0.1 -0.2 -0.1
v 0.1 -0.1 -0.1
v 0.1 0.1 -0.1
v 0.1 0.3 -0.1
v 0.1 0.5 -0.1
v 0.2 -0.3 -0.1
v 0.2 -0.2 -0.1
v 0.2 -0.1 -0.1
v 0.2 0 -0.1
v 0.3 0 -0.1
v 0.3 0.3 -0.1
v 0.3 0.5 -0.1
v -0.4 -0.4 -0.2
v -0.4 -0.3 -0.2
v -0.3 -0.4 -0.2
v -0.3 -0.3 -0.2
v -0.1 -0.3 -0.2
v -0.1 -0.2 -0.2
v 0.1 -0.3 -0.2
v 0.1 -0.2 -0.2
v 0.3 -0.4 -0.2
v 0.3 -0.3 -0.2
v 0.4 -0.4 -0.2
v 0.4 -0.3 -0.2
v -0.3 -0.4 -0.3
v -0.3 -0.3 -0.3
v -0.2 -0.4 -0.3
v -0.2 -0.3 -0.3
v 0.2 -0.4 -0.3
v 0.2 -0.3 -0.3
v 0.3 -0.4 -0.3
v 0.3 -0.3 -0.3
v -0.2 -0.4 -0.4
v -0.2 -0.3 -0.4
v 0.2 -0.4 -0.4
v 0.2 -0.3 -0.4
v -0.2 -0.4 0.4
v 0.2 -0.4 0.4
v -0.3 -0.4 0.3
v -0.2 -0.4 0.3
v 0.2 -0.4 0.3
v 0.3 -0.4 0.3
v -0.4 -0.4 0.2
v -0.3 -0.4 0.2
v 0.3 -0.4 0.2
v 0.4 -0.4 0.2
v -0.4 -0.4 -0.2
v -0.3 -0.4 -0.2
v 0.3 -0.4 -0.2
v 0.4 -0.4 -0.2
v -0.3 -0.4 -0.3
v -0.2 -0.4 -0.3
v 0.2 -0.4 -0.3
v 0.3 -0.4 -0.3
v -0.2 -0.4 -0.4
v 0.2 -0.4 -0.4
v -0.2 -0.1 0.1
v -0.1 -0.1 0.1
v 0.1 -0.1 0.1
v 0.2 -0.1 0.1
v -0.2 -0.1 -0.1
v -0.1 -0.1 -0.1
v 0.1 -0.1 -0.1
v 0.2 -0.1 -0.1
v -0.3 0 0.1
v -0.2 0 0.1
v 0.2 0 0.1
v 0.3 0 0.1
v -0.3 0 -0.1
v -0.2 0 -0.1
v 0.2 0 -0.1
v 0.3 0 -0.1
v -0.2 -0.3 0.4
v 0.2 -0.3 0.4
v -0.3 -0.3 0.3
v -0.2 -0.3 0.3
v 0.2 -0.3 0.3
v 0.3 -0.3 0.3
v -0.4 -0.3 0.2
v -0.3 -0.3 0.2
v -0.1 -0.3 0.2
v 0.1 -0.3 0.2
v 0.3 -0.3 0.2
v 0.4 -0.3 0.2
v -0.2 -0.3 0.1
v -0.1 -0.3 0.1
v 0.1 -0.3 0.1
v 0.2 -0.3 0.1
v -0.2 -0.3 -0.1
v -0.1 -0.3 -0.1
v 0.1 -0.3 -0.1
v 0.2 -0.3 -0.1
v -0.4 -0.3 -0.2
v -0.3 -0.3 -0.2
v -0.1 -0.3 -0.2
v 0.1 -0.3 -0.2
v 0.3 -0.3 -0.2
v 0.4 -0.3 -0.2
v -0.3 -0.3 -0.3
v -0.2 -0.3 -0.3
v 0.2 -0.3 -0.3
v 0.3 -0.3 -0.3
v -0.2 -0.3 -0.4
v 0.2 -0.3 -0.4
v -0.1 -0.2 0.2
v 0.1 -0.2 0.2
v -0.2 -0.2 0.1
v -0.1 -0.2 0.1
v 0.1 -0.2 0.1
v 0.2 -0.2 0.1
v -0.2 -0.2 -0.1
v -0.1 -0.2 -0.1
v 0.1 -0.2 -0.1
v 0.2 -0.2 -0.1
v -0.1 -0.2 -0.2
v 0.1 -0.2 -0.2
v -0.1 0.1 0.1
v 0.1 0.1 0.1
v -0.1 0.1 -0.1
v 0.1 0.1 -0.1
v -0.3 0.5 0.1
v -0.1 0.5 0.1
v 0.1 0.5 0.1
v 0.3 0.5 0.1
v -0.3 0.5 -0.1
v -0.1 0.5 -0.1
v 0.1 0.5 -0.1
v 0.3 0.5 -0.1

# faces
f 3/5/1 2/5/1 1/5/1
f 4/5/1 2/5/1 3/5/1
f 9/5/1 6/5/1 5/5/1
f 10/5/1 6/5/1 9/5/1
f 11/5/1 8/5/1 7/5/1
f 12/5/1 8/5/1 11/5/1
f 15/4/1 14/4/1 13/4/1
f 16/4/1 14/4/1 15/4/1
f 17/2/1 16/2/1 15/2/1
f 18/2/1 16/2/1 17/2/1
f 23/5/1 20/5/1 19/5/1
f 24/5/1 20/5/1 23/5/1
f 27/5/1 22/5/1 21/5/1
f 28/5/1 22/5/1 27/5/1
f 29/3/1 26/3/1 25/3/1
f 30/3/1 26/3/1 29/3/1
f 33/4/1 32/4/1 31/4/1
f 34/4/1 32/4/1 33/4/1
f 39/3/1 36/3/1 35/3/1
f 40/3/1 36/3/1 39/3/1
f 41/3/1 38/3/1 37/3/1
f 42/3/1 38/3/1 41/3/1
f 43/5/1 41/5/1 40/5/1
f 44/5/1 41/5/1 43/5/1
f 47/4/1 46/4/1 45/4/1
f 48/4/1 46/4/1 47/4/1
f 49/1/1 48/1/1 47/1/1
f 50/1/1 48/1/1 49/1/1
f 51/4/2 52/4/2 53/4/2
f 53/4/2 52/4/2 54/4/2
f 53/2/2 54/2/2 55/2/2
f 55/2/2 54/2/2 56/2/2
f 57/3/2 58/3/2 61/3/2
f 61/3/2 58/3/2 62/3/2
f 59/3/2 60/3/2 63/3/2
f 63/3/2 60/3/2 64/3/2
f 62/5/2 63/5/2 65/5/2
f 65/5/2 63/5/2 66/5/2
f 67/5/2 68/5/2 71/5/2
f 71/5/2 68/5/2 72/5/2
f 69/5/2 70/5/2 75/5/2
f 75/5/2 70/5/2 76/5/2
f 73/3/2 74/3/2 77/3/2
f 77/3/2 74/3/2 78/3/2
f 79/4/2 80/4/2 81/4/2
f 81/4/2 80/4/2 82/4/2
f 83/5/2 84/5/2 87/5/2
f 87/5/2 84/5/2 88/5/2
f 85/5/2 86/5/2 89/5/2
f 89/5/2 86/5/2 90/5/2
f 91/4/2 92/4/2 93/4/2
f 93/4/2 92/4/2 94/4/2
f 93/1/2 94/1/2 95/1/2
f 95/1/2 94/1/2 96/1/2
f 97/5/2 98/5/2 99/5/2
f 99/5/2 98/5/2 100/5/2
f 103/5/3 102/5/3 101/5/3
f 104/5/3 102/5/3 103/5/3
f 107/5/3 106/5/3 105/5/3
f 108/5/3 106/5/3 107/5/3
f 111/5/3 110/5/3 109/5/3
f 112/5/3 110/5/3 111/5/3
f 115/5/3 114/5/3 113/5/3
f 116/5/3 114/5/3 115/5/3
f 119/3/3 118/3/3 117/3/3
f 120/3/3 118/3/3 119/3/3
f 123/5/3 122/5/3 121/5/3
f 124/5/3 122/5/3 123/5/3
f 131/4/3 126/4/3 125/4/3
f 132/3/3 129/3/3 128/3/3
f 133/3/3 129/3/3 132/3/3
f 134/4/3 131/4/3 130/4/3
f 135/4/3 126/4/3 131/4/3
f 135/4/3 131/4/3 134/4/3
f 136/2/3 127/2/3 126/2/3
f 136/4/3 126/4/3 135/4/3
f 137/2/3 127/2/3 136/2/3
f 139/5/3 134/5/3 133/5/3
f 140/4/3 135/4/3 134/4/3
f 140/5/3 134/5/3 139/5/3
f 141/4/3 135/4/3 140/4/3
f 144/3/3 139/3/3 138/3/3
f 145/3/3 139/3/3 144/3/3
f 146/4/3 142/4/3 141/4/3
f 146/4/3 141/4/3 140/4/3
f 147/4/3 142/4/3 146/4/3
f 148/4/3 142/4/3 147/4/3
f 149/1/3 143/1/3 142/1/3
f 149/4/3 142/4/3 148/4/3
f 150/1/3 143/1/3 149/1/3
f 151/4/4 152/4/4 157/4/4
f 154/3/4 155/3/4 158/3/4
f 158/3/4 155/3/4 159/3/4
f 156/4/4 157/4/4 160/4/4
f 157/4/4 152/4/4 161/4/4
f 160/4/4 157/4/4 161/4/4
f 152/2/4 153/2/4 162/2/4
f 161/4/4 152/4/4 162/4/4
f 162/2/4 153/2/4 163/2/4
f 159/5/4 160/5/4 165/5/4
f 160/4/4 161/4/4 166/4/4
f 165/5/4 160/5/4 166/5/4
f 166/4/4 161/4/4 167/4/4
f 164/3/4 165/3/4 170/3/4
f 170/3/4 165/3/4 171/3/4
f 167/4/4 168/4/4 172/4/4
f 166/4/4 167/4/4 172/4/4
f 172/4/4 168/4/4 173/4/4
f 173/4/4 168/4/4 174/4/4
f 168/1/4 169/1/4 175/1/4
f 174/4/4 168/4/4 175/4/4
f 175/1/4 169/1/4 176/1/4
f 177/5/4 178/5/4 179/5/4
f 179/5/4 178/5/4 180/5/4
f 181/3/4 182/3/4 183/3/4
f 183/3/4 182/3/4 184/3/4
f 185/5/4 186/5/4 187/5/4
f 187/5/4 186/5/4 188/5/4
f 189/5/4 190/5/4 191/5/4
f 191/5/4 190/5/4 192/5/4
f 193/5/4 194/5/4 195/5/4
f 195/5/4 194/5/4 196/5/4
f 197/5/4 198/5/4 199/5/4
f 199/5/4 198/5/4 200/5/4
f 204/5/5 202/5/5 201/5/5
f 205/5/5 202/5/5 204/5/5
f 208/5/5 204/5/5 203/5/5
f 208/5/5 206/5/5 205/5/5
f 208/5/5 205/5/5 204/5/5
f 209/5/5 206/5/5 208/5/5
f 211/5/5 208/5/5 207/5/5
f 211/5/5 210/5/5 209/5/5
f 211/5/5 209/5/5 208/5/5
f 212/5/5 210/5/5 211/5/5
f 213/5/5 210/5/5 212/5/5
f 214/5/5 210/5/5 213/5/5
f 215/5/5 213/5/5 212/5/5
f 216/5/5 213/5/5 215/5/5
f 217/5/5 213/5/5 216/5/5
f 218/5/5 213/5/5 217/5/5
f 219/5/5 217/5/5 216/5/5
f 220/5/5 217/5/5 219/5/5
f 225/4/5 222/4/5 221/4/5
f 226/4/5 222/4/5 225/4/5
f 227/4/5 224/4/5 223/4/5
f 228/4/5 224/4/5 227/4/5
f 233/4/5 230/4/5 229/4/5
f 234/4/5 230/4/5 233/4/5
f 235/4/5 232/4/5 231/4/5
f 236/4/5 232/4/5 235/4/5
f 237/5/6 238/5/6 240/5/6
f 240/5/6 238/5/6 241/5/6
f 239/5/6 240/5/6 244/5/6
f 241/5/6 242/5/6 244/5/6
f 240/5/6 241/5/6 244/5/6
f 244/5/6 242/5/6 245/5/6
f 245/5/6 242/5/6 246/5/6
f 246/5/6 242/5/6 247/5/6
f 243/5/6 244/5/6 249/5/6
f 244/5/6 245/5/6 249/5/6
f 249/5/6 245/5/6 250/5/6
f 247/5/6 248/5/6 251/5/6
f 246/5/6 247/5/6 251/5/6
f 251/5/6 248/5/6 252/5/6
f 243/5/6 249/5/6 253/5/6
f 252/5/6 248/5/6 256/5/6
f 253/5/6 254/5/6 257/5/6
f 243/5/6 253/5/6 257/5/6
f 257/5/6 254/5/6 258/5/6
f 258/5/6 254/5/6 259/5/6
f 255/5/6 256/5/6 260/5/6
f 256/5/6 248/5/6 261/5/6
f 260/5/6 256/5/6 261/5/6
f 261/5/6 248/5/6 262/5/6
f 258/5/6 259/5/6 263/5/6
f 259/5/6 260/5/6 263/5/6
f 260/5/6 261/5/6 263/5/6
f 263/5/6 261/5/6 264/5/6
f 264/5/6 261/5/6 265/5/6
f 265/5/6 261/5/6 266/5/6
f 264/5/6 265/5/6 267/5/6
f 267/5/6 265/5/6 268/5/6
f 269/3/6 270/3/6 272/3/6
f 272/3/6 270/3/6 273/3/6
f 271/3/6 272/3/6 275/3/6
f 275/3/6 272/3/6 276/3/6
f 273/3/6 274/3/6 277/3/6
f 277/3/6 274/3/6 278/3/6
f 276/3/6 277/3/6 279/3/6
f 279/3/6 277/3/6 280/3/6
f 281/4/6 282/4/6 283/4/6
f 283/4/6 282/4/6 284/4/6
f 285/2/6 286/2/6 289/2/6
f 289/2/6 286/2/6 290/2/6
f 287/1/6 288/1/6 291/1/6
f 291/1/6 288/1/6 292/1/6
